<svg xmlns="http://www.w3.org/2000/svg" viewBox="0 0 60 50">
  <path fill="#FFF" fill-rule="evenodd" d="M5.972 26.03c.022-3.396.046-6.823.75-10.16.088-.415.186-.825.295-1.234.13-.488.276-.97.44-1.447.223-.65.477-1.29.77-1.914.345-.737.742-1.45 1.186-2.133.56-.854 1.193-1.658 1.893-2.4.562-.598 1.165-1.155 1.802-1.67.387-.31.786-.607 1.196-.888 2.623-1.8 5.656-2.942 8.762-3.57.494-.1.99-.186 1.487-.26.633-.095 1.27-.17 1.908-.227.775-.07 1.55-.106 2.327-.124.274-.003.547-.005.82-.004.634.007 1.268.025 1.9.064 1.507.092 3.007.28 4.488.57.507.1 1.013.21 1.515.334.4.098.797.203 1.19.327.62.198 1.23.438 1.822.716.372.176.737.366 1.094.57 2.427 1.382 4.463 3.375 6.11 5.616.238.325.468.655.69.99.318.476.62.963.905 1.457.367.635.71 1.283 1.027 1.943.45.934.85 1.892 1.2 2.867.105.297.207.597.303.897.072.224.144.45.206.676.174.645.29 1.306.397 1.965.148.924.265 1.852.366 2.78.1.926.184 1.854.244 2.783.025.38.047.758.06 1.137.682.204 1.352.45 1.996.75.88.413 1.714.93 2.46 1.554.26.217.508.447.745.688.123.125.245.253.36.386.71.832 1.033 1.914 1.184 2.978.024.182.045.365.062.548.02.204.032.41.043.615.013.27.02.542.023.814.003.326.002.652 0 .978 0 .405-.005.81-.015 1.214-.05 2.002-.234 4.034-.922 5.93-.092.254-.194.507-.305.755-.155.348-.328.688-.52 1.016-.306.525-.66 1.022-1.052 1.484-.292.343-.606.667-.94.97-.187.173-.378.346-.59.49-.404.27-.867.447-1.333.58-.64.182-1.3.288-1.96.368-1 .122-2.01.178-3.018.207-1.12.034-2.244.03-3.365-.003l-.09-.003c-.095-.008-.12-.008-.214-.025-.107-.02-.21-.05-.31-.092-.4-.17-.714-.516-.842-.933-.03-.103-.05-.21-.06-.318l-.004-.107c-.007-1.043-.012-2.085-.017-3.127-.006-1.587-.01-3.174-.003-4.76.002-.676.007-1.352.017-2.028.007-.434.014-.87.042-1.302.018-.25.038-.497.06-.745.05-.553.106-1.106.174-1.657.156-1.285.36-2.565.612-3.835.213-1.08.456-2.157.753-3.218l.015-.052c.012-.035.022-.07.035-.104.037-.102.087-.2.146-.29.153-.237.372-.425.625-.542-.045-.28-.1-.562-.162-.84-.472-2.075-1.405-4.02-2.515-5.825-.202-.33-.41-.655-.625-.978-.253-.38-.514-.757-.78-1.13-.345-.48-.7-.956-1.06-1.427-.45-.586-.906-1.167-1.367-1.743-.073-.09-.148-.18-.223-.27-.195-.227-.397-.447-.608-.66-.418-.416-.87-.8-1.352-1.14-.35-.247-.716-.472-1.094-.672-.26-.138-.526-.264-.796-.38-1.622-.695-3.385-.992-5.134-1.143-.3-.025-.6-.048-.9-.066-.465-.027-.93-.048-1.395-.064-.42-.015-.84-.03-1.26-.026-.674.008-1.348.05-2.02.116-1.1.108-2.197.274-3.272.532-.44.107-.88.228-1.307.377-.27.094-.535.198-.79.32-.254.12-.49.266-.726.418-.355.227-.697.473-1.028.734-1.686 1.33-3.033 3.053-4.058 4.932-.68 1.245-1.22 2.563-1.635 3.92-.435 1.42-.73 2.886-.877 4.364-.02.203-.037.404-.05.607l.427-.044.11-.007h.11c.04.002.076.004.112.01.11.012.22.038.324.076.35.125.644.383.815.713.052.098.092.202.12.31.01.036.017.072.024.108.105.58.206 1.157.308 1.736.43 2.47.834 4.945 1.202 7.425.13.868.25 1.74.365 2.61.118.912.228 1.823.32 2.737.044.447.085.894.117 1.34.047.656.084 1.312.12 1.967.057.983.108 1.966.16 2.95l.034.658c0 .1.005.124-.005.222-.01.11-.034.22-.07.325-.13.388-.422.712-.796.88-.102.047-.208.08-.317.103-.036.008-.073.013-.11.018-.167.023-.335.042-.503.062-1.083.12-2.17.21-3.257.26-.86.037-1.722.05-2.582.007-.626-.032-1.257-.09-1.87-.226-.45-.1-.896-.24-1.296-.468-.12-.067-.234-.142-.342-.226-.09-.07-.177-.147-.264-.224-.18-.158-.353-.32-.52-.49-.673-.678-1.258-1.44-1.76-2.25-.89-1.43-1.536-3.005-1.994-4.62-.26-.915-.46-1.846-.602-2.784-.17-1.115-.26-2.242-.262-3.37 0-.298 0-.595.008-.892.005-.224.013-.448.027-.672.045-.746.14-1.495.36-2.21.16-.532.39-1.044.715-1.496.187-.26.41-.494.637-.72.425-.427.888-.814 1.38-1.16.878-.617 1.84-1.093 2.845-1.46zm2.557 2.333c-1.217.29-2.408.717-3.46 1.4-.4.26-.776.557-1.12.887-.088.085-.174.172-.257.26-.06.064-.12.126-.172.198-.112.156-.19.338-.252.52-.09.264-.145.536-.186.81-.076.503-.1 1.013-.107 1.52-.007.414-.01.83.004 1.242.04 1.305.214 2.608.51 3.88.276 1.197.663 2.373 1.19 3.482.617 1.298 1.434 2.527 2.536 3.464.022.013.047.023.072.033.256.1.53.147.802.185.432.062.87.088 1.306.1.534.017 1.07.01 1.604-.007.134-.004.268-.01.402-.016 0-.067-.003-.12-.005-.154-.095-1.67-.58-3.395-.74-5.085-.375-4.012-1.28-8.678-2.128-12.72zm42.334-.175c-1.38 5.958-2.136 10.916-2.232 16.873.208-.002.415-.007.623-.013.8-.024 1.602-.066 2.4-.148.5-.053 1.002-.12 1.493-.228.156-.034.31-.073.46-.12.12-.036.235-.078.345-.133l.036-.022c.027-.018.1-.085.124-.106.085-.075.17-.152.25-.23.29-.275.56-.572.8-.89.2-.26.38-.533.543-.817.792-1.39 1.095-2.995 1.224-4.573.025-.3.044-.598.057-.898.03-.63.04-1.262.042-1.893 0-.544.004-1.09-.022-1.635-.02-.405-.056-.812-.133-1.21-.046-.238-.106-.473-.195-.697-.068-.172-.154-.336-.277-.475-.064-.07-.13-.14-.198-.21-.288-.29-.595-.558-.925-.8-1.18-.863-2.583-1.363-4-1.685l-.416-.09zm-.746-3.146c-.023-.416-.054-.83-.088-1.247-.066-.798-.147-1.595-.242-2.39-.083-.7-.177-1.395-.292-2.088-.08-.48-.165-.96-.286-1.432-.043-.166-.094-.33-.146-.493-.084-.27-.173-.537-.267-.803-.276-.784-.588-1.555-.935-2.31-.742-1.61-1.643-3.154-2.713-4.57-.815-1.076-1.73-2.08-2.757-2.96-1.132-.967-2.403-1.78-3.788-2.334-.31-.124-.623-.236-.943-.333-.21-.064-.423-.12-.637-.175-.3-.076-.603-.148-.906-.215-1.017-.224-2.045-.394-3.078-.513-1.146-.133-2.3-.203-3.453-.21-.874-.005-1.748.026-2.62.096-.66.052-1.32.128-1.976.226-.53.08-1.057.174-1.58.285-.44.094-.875.198-1.31.315-2.604.702-5.123 1.847-7.22 3.565-.352.29-.692.594-1.017.914-.463.455-.896.94-1.293 1.453-.43.554-.82 1.14-1.163 1.75-.176.316-.34.637-.495.964-1.026 2.19-1.51 4.597-1.74 6.992-.04.416-.073.834-.1 1.252-.032.494-.054.988-.072 1.482-.022.626-.036 1.254-.044 1.88.22-2.465.804-4.9 1.73-7.196.777-1.926 1.803-3.76 3.096-5.387.953-1.2 2.052-2.286 3.286-3.198.324-.24.657-.467.998-.68.228-.144.46-.282.698-.404.516-.265 1.058-.474 1.61-.65.69-.224 1.4-.397 2.114-.54.832-.167 1.673-.293 2.518-.384.864-.094 1.732-.15 2.6-.163h.405c.33.005.663.016.994.028.41.014.818.032 1.226.055 1.42.08 2.84.22 4.232.514 1.446.306 2.86.782 4.163 1.488.605.327 1.184.702 1.728 1.12.538.414 1.043.87 1.512 1.357.297.31.578.633.85.965.2.253.4.51.602.763.656.837 1.306 1.68 1.925 2.544.287.4.567.804.84 1.214 1.56 2.346 2.88 4.896 3.53 7.653.14.587.244 1.18.318 1.775.06.01.122.018.183.027z"/>
</svg>
