<?xml version="1.0" encoding="UTF-8" standalone="no"?>
<!-- Created with Keyshape -->
<svg xmlns="http://www.w3.org/2000/svg" xmlns:xlink="http://www.w3.org/1999/xlink" fill-rule="evenodd" stroke-miterlimit="1.4142" viewBox="0 0 80 80" clip-rule="evenodd" stroke-linejoin="round">
    <style>
@keyframes a0_t { 0% { transform: translate(29.963435px,14.668px); } 8.3333% { transform: translate(-0.144176px,-0.138px); } 41.6666% { transform: translate(-0.144176px,-0.138px); } 50% { transform: translate(29.96px,14.67px); } 100% { transform: translate(29.96px,14.67px); } }
@keyframes a0_o { 0% { opacity: 0; } 8.3333% { opacity: 1; } 41.6667% { opacity: 1; } 50% { opacity: 0; } 100% { opacity: 0; } }
@keyframes a1_o { 0% { opacity: 0; } 15% { opacity: 0; } 18.3333% { opacity: 1; } 23.3333% { opacity: 1; } 26.6667% { opacity: 0; } 50% { opacity: 0; } 100% { opacity: 0; } }
@keyframes a2_o { 0% { opacity: 1; } 10% { opacity: 1; } 13.3333% { opacity: 0; } 26.6667% { opacity: 0; } 30% { opacity: 1; } 50% { opacity: 1; } 100% { opacity: 1; } }
@keyframes a3_o { 0% { opacity: 0; } 10% { opacity: 0; } 13.3333% { opacity: 1; } 16.6667% { opacity: 0; } 23.3333% { opacity: 0; } 26.6667% { opacity: 1; } 30% { opacity: 0; } 50% { opacity: 0; } 100% { opacity: 0; } }
@keyframes a4_o { 0% { opacity: 0; } 13.3333% { opacity: 0; } 16.6667% { opacity: 1; } 23.3333% { opacity: 1; } 26.6667% { opacity: 0; } 50% { opacity: 0; } 100% { opacity: 0; } }
    </style>
    <g opacity="0" transform="translate(29.9634,14.668)" style="animation: a0_t 6s linear infinite both, a0_o 6s linear infinite both;">
        <g fill="#fba120" fill-rule="nonzero" opacity="0" style="animation: a1_o 6s linear infinite both;">
            <path d="M26.172,18.178L26.24,18.184L26.576,18.223C27.093,18.28,27.611,18.327,28.13,18.366C28.84,18.42,29.551,18.459,30.261,18.505C30.4,18.515,30.54,18.524,30.679,18.534C31.056,18.562,31.432,18.594,31.808,18.633C32.252,18.68,32.695,18.737,33.135,18.808C33.698,18.898,34.257,19.01,34.811,19.143C35.161,19.227,35.509,19.32,35.854,19.418L35.942,19.444C36,19.462,36.015,19.466,36.071,19.489C36.196,19.541,36.313,19.613,36.415,19.703C36.534,19.808,36.633,19.936,36.704,20.078C36.774,20.22,36.817,20.376,36.83,20.534C36.84,20.669,36.828,20.807,36.794,20.938C36.765,21.048,36.722,21.153,36.665,21.251C36.573,21.408,36.447,21.543,36.297,21.646C36.166,21.736,36.018,21.8,35.863,21.833C35.73,21.862,35.593,21.869,35.458,21.854C35.412,21.848,35.368,21.841,35.324,21.83C35.302,21.825,35.28,21.819,35.258,21.813C35.149,21.782,35.041,21.751,34.932,21.721C34.603,21.631,34.272,21.547,33.939,21.472C33.476,21.369,33.01,21.282,32.542,21.211C32.126,21.149,31.708,21.1,31.289,21.06C30.892,21.022,30.495,20.993,30.097,20.966C29.582,20.932,29.066,20.902,28.55,20.868C27.858,20.822,27.166,20.767,26.476,20.693C26.357,20.68,26.246,20.668,26.126,20.654C26,20.639,25.873,20.628,25.751,20.593C25.598,20.549,25.455,20.475,25.331,20.376C25.206,20.278,25.101,20.155,25.023,20.017C24.967,19.919,24.924,19.813,24.897,19.703C24.849,19.504,24.85,19.295,24.902,19.097C24.948,18.922,25.033,18.757,25.149,18.618C25.236,18.513,25.341,18.424,25.457,18.353C25.593,18.271,25.744,18.216,25.901,18.191C25.946,18.184,25.991,18.179,26.036,18.177C26.059,18.176,26.082,18.176,26.104,18.175L26.172,18.178ZM31.32,7.182C31.377,7.185,31.433,7.189,31.49,7.199C31.602,7.218,31.712,7.252,31.815,7.301C31.918,7.35,32.014,7.413,32.099,7.489C32.343,7.703,32.495,8.012,32.516,8.336C32.524,8.468,32.511,8.602,32.477,8.731C32.443,8.859,32.388,8.982,32.315,9.093C32.283,9.141,32.248,9.185,32.211,9.229L32.046,9.415C31.79,9.698,31.527,9.973,31.255,10.239C30.835,10.648,30.397,11.037,29.943,11.407C29.54,11.736,29.125,12.05,28.703,12.354C28.38,12.587,28.052,12.814,27.723,13.039C27.347,13.294,26.969,13.548,26.593,13.804C26.338,13.978,26.083,14.154,25.832,14.335C25.681,14.444,25.532,14.554,25.384,14.667L25.338,14.7C25.29,14.731,25.242,14.761,25.19,14.787C25.054,14.855,24.906,14.897,24.755,14.911C24.622,14.924,24.488,14.915,24.359,14.885C24.042,14.811,23.763,14.61,23.592,14.334C23.531,14.238,23.485,14.132,23.453,14.023C23.412,13.877,23.397,13.723,23.411,13.572C23.425,13.42,23.467,13.272,23.534,13.136C23.593,13.017,23.672,12.907,23.766,12.813C23.806,12.772,23.85,12.736,23.894,12.701C23.96,12.651,24.025,12.602,24.09,12.553C24.256,12.431,24.424,12.309,24.592,12.19C25.166,11.784,25.753,11.395,26.335,11C26.472,10.906,26.61,10.812,26.747,10.717C27.395,10.265,28.032,9.797,28.635,9.287C29.014,8.967,29.379,8.632,29.728,8.279C29.945,8.059,30.155,7.832,30.359,7.6L30.398,7.558C30.438,7.518,30.479,7.479,30.524,7.444C30.659,7.338,30.816,7.262,30.981,7.219C31.037,7.205,31.093,7.195,31.149,7.189C31.2,7.183,31.212,7.184,31.263,7.182L31.32,7.182ZM20.628,0.139C20.687,0.144,20.702,0.144,20.761,0.153C20.871,0.171,20.978,0.204,21.079,0.251C21.343,0.372,21.559,0.588,21.682,0.851C21.728,0.952,21.762,1.06,21.78,1.169C21.794,1.257,21.799,1.347,21.795,1.436C21.791,1.495,21.788,1.51,21.78,1.568C21.76,1.695,21.739,1.822,21.717,1.948C21.567,2.804,21.39,3.656,21.225,4.509L21.126,5.035C21.052,5.44,20.982,5.846,20.92,6.253C20.844,6.751,20.78,7.252,20.731,7.754C20.676,8.319,20.64,8.886,20.624,9.454C20.614,9.815,20.613,10.176,20.619,10.537L20.618,10.603C20.617,10.626,20.616,10.648,20.614,10.67C20.61,10.714,20.604,10.758,20.595,10.802C20.559,10.977,20.486,11.143,20.38,11.287C20.301,11.395,20.204,11.489,20.095,11.566C19.82,11.759,19.47,11.832,19.141,11.765C19.032,11.743,18.926,11.706,18.826,11.655C18.727,11.605,18.635,11.541,18.553,11.466C18.438,11.36,18.343,11.233,18.276,11.093C18.217,10.972,18.179,10.843,18.163,10.71C18.155,10.651,18.156,10.636,18.153,10.577C18.151,10.453,18.15,10.329,18.149,10.205C18.148,9.64,18.163,9.076,18.197,8.513C18.244,7.733,18.327,6.955,18.438,6.182C18.52,5.603,18.619,5.026,18.726,4.451C18.855,3.757,18.997,3.065,19.131,2.371C19.162,2.209,19.193,2.047,19.223,1.885C19.266,1.648,19.307,1.411,19.346,1.173L19.358,1.107C19.373,1.05,19.375,1.035,19.394,0.979C19.415,0.915,19.442,0.854,19.473,0.795C19.619,0.518,19.871,0.303,20.168,0.203C20.252,0.174,20.339,0.155,20.428,0.145C20.487,0.138,20.502,0.139,20.561,0.138C20.584,0.138,20.606,0.139,20.628,0.139zM17.482,25.016C17.54,25.022,17.554,25.023,17.612,25.034C17.698,25.05,17.782,25.075,17.863,25.109C18.168,25.237,18.412,25.488,18.533,25.795C18.565,25.877,18.588,25.962,18.602,26.048C18.612,26.106,18.612,26.12,18.616,26.178C18.621,26.259,18.625,26.34,18.628,26.421C18.642,26.748,18.648,27.075,18.646,27.402C18.64,28.342,18.573,29.281,18.464,30.214C18.332,31.345,18.138,32.469,17.906,33.584C17.77,34.233,17.621,34.878,17.465,35.522L17.448,35.585C17.441,35.606,17.435,35.627,17.428,35.648C17.413,35.689,17.396,35.729,17.377,35.769C17.31,35.907,17.218,36.032,17.105,36.136C17.009,36.226,16.899,36.299,16.779,36.354C16.68,36.399,16.574,36.432,16.466,36.449C16.14,36.503,15.799,36.421,15.534,36.224C15.41,36.133,15.304,36.019,15.223,35.889C15.141,35.76,15.084,35.615,15.055,35.464C15.031,35.335,15.027,35.202,15.044,35.072C15.051,35.014,15.055,35,15.068,34.943C15.121,34.724,15.173,34.505,15.224,34.286C15.558,32.847,15.843,31.396,16.014,29.928C16.154,28.729,16.219,27.519,16.154,26.313L16.152,26.247C16.153,26.189,16.152,26.174,16.159,26.116C16.168,26.029,16.186,25.943,16.214,25.86C16.269,25.694,16.359,25.539,16.478,25.41C16.611,25.265,16.78,25.153,16.965,25.086C17.068,25.049,17.176,25.025,17.285,25.017C17.343,25.012,17.358,25.013,17.416,25.013L17.482,25.016ZM12.267,22.438C12.325,22.443,12.383,22.448,12.441,22.46C12.556,22.482,12.668,22.522,12.772,22.576C13.069,22.731,13.294,23.006,13.387,23.327C13.42,23.44,13.436,23.557,13.436,23.675C13.435,23.792,13.418,23.91,13.384,24.022C13.345,24.153,13.284,24.278,13.204,24.389C13.17,24.437,13.132,24.481,13.092,24.524C13.027,24.592,12.962,24.659,12.896,24.725C12.584,25.039,12.262,25.34,11.925,25.626C11.508,25.98,11.072,26.309,10.619,26.615C10.292,26.836,9.958,27.045,9.619,27.246C9.183,27.506,8.74,27.754,8.301,28.008C8.196,28.07,8.092,28.131,7.987,28.194C7.605,28.424,7.228,28.663,6.866,28.924C6.639,29.087,6.418,29.258,6.204,29.437C6.08,29.541,5.959,29.647,5.839,29.755L5.794,29.794C5.748,29.83,5.701,29.865,5.651,29.895C5.533,29.966,5.404,30.017,5.27,30.046C5.156,30.07,5.037,30.078,4.92,30.07C4.744,30.056,4.572,30.005,4.418,29.92C4.263,29.835,4.128,29.717,4.023,29.575C3.953,29.481,3.896,29.377,3.856,29.267C3.801,29.12,3.775,28.963,3.78,28.806C3.784,28.65,3.818,28.494,3.881,28.35C3.927,28.243,3.989,28.142,4.064,28.051C4.102,28.006,4.143,27.965,4.186,27.925C4.248,27.869,4.31,27.813,4.373,27.758C4.576,27.581,4.783,27.409,4.995,27.244C5.346,26.971,5.709,26.715,6.082,26.474C6.719,26.061,7.384,25.693,8.041,25.313C8.146,25.251,8.252,25.189,8.357,25.127C8.549,25.012,8.74,24.896,8.929,24.775C9.247,24.571,9.557,24.356,9.857,24.126C10.17,23.887,10.47,23.632,10.758,23.364C10.949,23.187,11.133,23.003,11.314,22.815L11.355,22.774C11.399,22.734,11.443,22.696,11.492,22.662C11.636,22.561,11.801,22.49,11.974,22.458C12.032,22.447,12.091,22.44,12.149,22.438C12.169,22.437,12.188,22.437,12.208,22.437C12.227,22.437,12.247,22.438,12.267,22.438zM2.862,14.99C3.429,14.995,3.995,15.022,4.559,15.079C5.252,15.148,5.941,15.258,6.623,15.402C7.093,15.501,7.56,15.616,8.024,15.74C8.818,15.953,9.604,16.194,10.393,16.424C10.523,16.462,10.652,16.499,10.782,16.536L10.914,16.573L10.977,16.593C10.998,16.601,11.019,16.608,11.04,16.616C11.081,16.633,11.122,16.652,11.161,16.673C11.318,16.757,11.456,16.876,11.563,17.018C11.644,17.125,11.707,17.244,11.749,17.371C11.784,17.477,11.805,17.587,11.81,17.699C11.827,18.034,11.702,18.369,11.47,18.612C11.393,18.692,11.305,18.762,11.21,18.819C11.076,18.899,10.927,18.953,10.773,18.978C10.641,18.999,10.505,18.998,10.374,18.976C10.315,18.966,10.301,18.961,10.243,18.947C10.108,18.908,9.973,18.87,9.838,18.831C9.316,18.68,8.795,18.524,8.273,18.372C8.104,18.323,7.934,18.274,7.765,18.227C7.302,18.098,6.838,17.977,6.37,17.871C5.827,17.748,5.279,17.65,4.728,17.58C4.105,17.501,3.477,17.46,2.849,17.456C2.387,17.454,1.927,17.472,1.467,17.506L1.4,17.509C1.378,17.509,1.355,17.509,1.333,17.508C1.289,17.507,1.244,17.503,1.2,17.496C1.024,17.47,0.853,17.406,0.704,17.309C0.611,17.248,0.526,17.175,0.452,17.091C0.23,16.839,0.119,16.5,0.149,16.165C0.159,16.054,0.184,15.944,0.224,15.84C0.271,15.715,0.338,15.598,0.423,15.495C0.522,15.374,0.644,15.272,0.78,15.197C0.897,15.132,1.024,15.087,1.156,15.063C1.214,15.052,1.229,15.052,1.288,15.046C1.383,15.039,1.478,15.032,1.573,15.026C1.943,15.005,2.313,14.992,2.684,14.99L2.862,14.99ZM8.115,3.653C8.168,3.657,8.181,3.657,8.234,3.666C8.293,3.675,8.351,3.689,8.408,3.706C8.636,3.777,8.841,3.916,8.993,4.1C9.031,4.146,9.065,4.195,9.096,4.246C9.106,4.263,9.116,4.28,9.125,4.298C9.174,4.393,9.219,4.489,9.267,4.585C9.551,5.143,9.874,5.681,10.216,6.206C10.533,6.693,10.867,7.169,11.21,7.637C12.187,8.967,13.244,10.236,14.33,11.479L14.368,11.525C14.404,11.572,14.438,11.62,14.468,11.672C14.538,11.793,14.587,11.925,14.613,12.061C14.635,12.179,14.64,12.299,14.628,12.418C14.615,12.536,14.586,12.653,14.54,12.763C14.471,12.928,14.367,13.078,14.235,13.199C14.103,13.32,13.945,13.411,13.774,13.466C13.642,13.508,13.502,13.527,13.363,13.523C13.204,13.518,13.046,13.482,12.901,13.417C12.792,13.369,12.69,13.305,12.6,13.227C12.554,13.188,12.513,13.146,12.473,13.102C12.355,12.967,12.237,12.832,12.12,12.697C11.039,11.445,9.99,10.163,9.022,8.821C8.656,8.313,8.301,7.796,7.966,7.267C7.601,6.69,7.259,6.098,6.96,5.483L6.928,5.416C6.904,5.362,6.881,5.307,6.863,5.25C6.827,5.136,6.809,5.017,6.807,4.898C6.805,4.719,6.842,4.54,6.916,4.377C6.989,4.214,7.099,4.067,7.234,3.95C7.324,3.872,7.426,3.808,7.535,3.759C7.643,3.71,7.759,3.677,7.877,3.661C7.937,3.653,7.996,3.651,8.056,3.65L8.115,3.653Z" transform="translate(18.4888,18.3016) translate(-18.4888,-18.3016)"/>
        </g>
        <g opacity="1" style="animation: a2_o 6s linear infinite both;">
            <path fill="#fff" fill-opacity="0.749" d="M18.666,14.965C18.598,13.487,19.476,12.937,19.833,12.757C20.189,12.568,21.54,12.52,22.109,13.696C22.485,14.492,25.021,21.024,26.719,25.772C27.22,25.487,30.285,24.445,31.482,26.662C31.858,26.321,34.723,25.336,36.218,26.852C36.787,27.43,37.23,28.151,37.549,28.823C37.76,28.557,40.343,27.746,41.8,29.345C42.71,30.344,43.729,32.955,44.694,35.031C45.659,37.106,45.465,38.812,45.465,43.787C45.465,48.763,45.061,52.013,46.161,52.876L49.112,55.691C49.112,55.691,47.655,58.989,44.241,61.566C40.808,64.144,36.015,64.408,36.015,64.408C36.015,64.408,36.015,62.513,32.156,58.723C28.3,54.932,27.335,56.827,23.681,50.772C20.026,44.716,20.46,40.546,20.257,38.746C20.064,36.935,18.618,32.955,18.618,32.955C18.618,32.955,17.21,30.661,17.866,30.32C18.531,29.989,20.789,29.824,23.231,33.089C23.231,33.089,18.744,16.841,18.666,14.965z"/>
            <path fill="#2f323e" d="M34.089,25.108C34.201,25.111,34.314,25.116,34.426,25.126C34.677,25.147,34.928,25.187,35.173,25.249C35.575,25.351,35.962,25.513,36.309,25.739C36.467,25.842,36.616,25.957,36.754,26.084C36.894,26.213,37.024,26.354,37.149,26.497C37.367,26.748,37.566,27.016,37.75,27.293C37.825,27.408,37.898,27.525,37.968,27.643C38.02,27.629,38.071,27.617,38.123,27.604C38.611,27.491,39.113,27.44,39.614,27.46C40.008,27.477,40.402,27.538,40.78,27.654C41.042,27.734,41.296,27.84,41.536,27.973C41.861,28.153,42.158,28.381,42.415,28.649C42.63,28.872,42.815,29.123,42.985,29.382C43.17,29.663,43.337,29.955,43.496,30.252C43.836,30.888,44.14,31.545,44.437,32.202C44.685,32.751,44.927,33.303,45.173,33.853C45.263,34.052,45.353,34.25,45.443,34.449C45.49,34.548,45.536,34.648,45.581,34.748C45.605,34.802,45.629,34.855,45.652,34.909C45.742,35.121,45.824,35.335,45.897,35.554C46.005,35.877,46.092,36.207,46.16,36.542C46.266,37.069,46.324,37.605,46.357,38.142C46.389,38.647,46.399,39.154,46.404,39.66C46.407,40.092,46.406,40.525,46.404,40.958C46.401,41.464,46.397,41.97,46.394,42.476C46.391,43.068,46.391,43.66,46.389,44.253C46.386,44.768,46.38,45.283,46.371,45.798C46.358,46.571,46.34,47.345,46.327,48.119C46.324,48.29,46.322,48.46,46.32,48.631C46.316,49.106,46.315,49.582,46.331,50.057C46.338,50.264,46.348,50.472,46.364,50.679C46.379,50.87,46.398,51.06,46.427,51.249C46.458,51.458,46.499,51.667,46.571,51.866C46.594,51.928,46.62,51.989,46.653,52.046C46.672,52.08,46.694,52.114,46.723,52.141C46.725,52.143,46.728,52.145,46.73,52.147L46.77,52.178L49.75,55.021C49.778,55.052,49.809,55.082,49.835,55.115C49.888,55.181,49.931,55.254,49.964,55.332C50.046,55.527,50.059,55.748,49.999,55.951C49.976,56.028,49.942,56.1,49.908,56.172C49.846,56.301,49.782,56.428,49.715,56.554C49.479,57.001,49.218,57.433,48.941,57.856C48.621,58.345,48.274,58.818,47.908,59.274C47.237,60.108,46.493,60.885,45.684,61.587C45.503,61.744,45.319,61.897,45.132,62.046C44.822,62.293,44.504,62.527,44.172,62.743C43.904,62.918,43.63,63.083,43.349,63.238C42.666,63.615,41.95,63.934,41.218,64.204C40.485,64.473,39.735,64.694,38.976,64.872C38.407,65.006,37.833,65.115,37.255,65.2C36.868,65.257,36.478,65.304,36.087,65.331L36.069,65.332C35.949,65.33,35.918,65.336,35.801,65.308C35.536,65.245,35.307,65.063,35.186,64.819C35.146,64.738,35.118,64.652,35.103,64.563C35.096,64.519,35.095,64.473,35.09,64.429L35.09,64.437C35.09,64.437,35.092,64.453,35.091,64.443C35.088,64.423,35.085,64.402,35.081,64.382C35.045,64.201,34.983,64.025,34.914,63.854C34.829,63.645,34.73,63.442,34.623,63.243C34.48,62.979,34.322,62.723,34.155,62.473C33.919,62.12,33.664,61.779,33.398,61.448C32.914,60.844,32.391,60.272,31.848,59.722C31.6,59.47,31.349,59.222,31.089,58.982C30.734,58.654,30.365,58.339,29.98,58.047C29.674,57.814,29.358,57.597,29.034,57.392C28.672,57.163,28.3,56.951,27.931,56.734C27.833,56.676,27.736,56.618,27.639,56.56C27.374,56.397,27.112,56.228,26.859,56.046C26.551,55.824,26.257,55.583,25.978,55.325C25.425,54.813,24.934,54.238,24.48,53.637C24.003,53.006,23.565,52.345,23.147,51.672C22.927,51.318,22.713,50.96,22.506,50.598C22.134,49.943,21.786,49.274,21.469,48.59C20.779,47.103,20.235,45.546,19.887,43.942C19.702,43.087,19.575,42.22,19.497,41.348C19.466,41.003,19.443,40.658,19.425,40.312C19.408,39.997,19.395,39.681,19.378,39.366C19.373,39.272,19.367,39.178,19.36,39.084C19.35,38.954,19.337,38.826,19.319,38.697C19.28,38.415,19.222,38.135,19.159,37.858C19.072,37.48,18.973,37.104,18.868,36.731C18.715,36.19,18.55,35.653,18.378,35.119C18.196,34.556,18.006,33.997,17.809,33.439L17.779,33.353C17.749,33.302,17.719,33.251,17.69,33.2C17.642,33.116,17.595,33.032,17.549,32.947C17.406,32.682,17.27,32.413,17.149,32.137C17.052,31.915,16.963,31.689,16.894,31.456C16.793,31.118,16.728,30.757,16.791,30.405C16.811,30.296,16.843,30.189,16.888,30.087C16.923,30.008,16.966,29.933,17.017,29.864C17.113,29.73,17.237,29.617,17.378,29.533C17.481,29.472,17.593,29.426,17.705,29.387C17.983,29.291,18.276,29.244,18.569,29.231C18.687,29.226,18.805,29.226,18.923,29.232C19.066,29.239,19.209,29.254,19.351,29.275C19.541,29.304,19.729,29.345,19.913,29.397C20.156,29.465,20.393,29.552,20.623,29.654C20.902,29.777,21.17,29.923,21.429,30.085L21.457,30.102C21.34,29.673,21.224,29.243,21.109,28.813C20.942,28.193,20.775,27.572,20.609,26.951C20.218,25.484,19.831,24.016,19.452,22.545C19.16,21.414,18.873,20.282,18.596,19.147C18.466,18.613,18.338,18.077,18.215,17.541C18.133,17.185,18.054,16.829,17.979,16.471C17.927,16.222,17.877,15.973,17.834,15.722C17.796,15.508,17.761,15.292,17.746,15.075C17.733,14.886,17.734,14.695,17.748,14.505C17.77,14.217,17.824,13.93,17.916,13.655C18.052,13.25,18.271,12.876,18.564,12.564C18.706,12.413,18.865,12.277,19.035,12.158C19.125,12.095,19.219,12.037,19.316,11.984C19.361,11.96,19.405,11.936,19.451,11.914C19.516,11.883,19.582,11.857,19.651,11.835C19.81,11.784,19.977,11.755,20.144,11.74C20.326,11.724,20.51,11.726,20.692,11.744C20.998,11.775,21.3,11.852,21.582,11.976C21.89,12.11,22.172,12.301,22.41,12.539C22.597,12.727,22.755,12.943,22.881,13.176C22.934,13.273,22.979,13.374,23.024,13.476C23.07,13.583,23.115,13.691,23.16,13.799C23.273,14.071,23.383,14.345,23.493,14.619C23.99,15.863,24.473,17.112,24.952,18.363C25.738,20.418,26.51,22.479,27.261,24.548L27.274,24.584C27.326,24.57,27.378,24.557,27.43,24.544C27.488,24.529,27.547,24.516,27.607,24.502C27.732,24.475,27.858,24.451,27.985,24.431C28.803,24.3,29.664,24.318,30.448,24.608C30.569,24.653,30.687,24.703,30.802,24.761C30.94,24.83,31.075,24.908,31.203,24.995C31.405,25.133,31.589,25.292,31.757,25.469L31.778,25.492C31.836,25.472,31.893,25.452,31.952,25.433C32.005,25.416,32.059,25.399,32.113,25.383C32.529,25.262,32.955,25.177,33.387,25.135C33.565,25.118,33.744,25.109,33.923,25.107C33.978,25.107,34.033,25.107,34.089,25.108zM26.001,26.356C25.991,26.343,25.981,26.331,25.972,26.319C25.902,26.223,25.895,26.192,25.848,26.084C25.74,25.782,25.631,25.48,25.522,25.178C24.669,22.828,23.789,20.487,22.89,18.154C22.56,17.299,22.228,16.444,21.89,15.592C21.786,15.331,21.681,15.07,21.575,14.809C21.487,14.592,21.399,14.376,21.305,14.162C21.293,14.136,21.281,14.11,21.268,14.084C21.23,14.008,21.183,13.936,21.125,13.872C21.096,13.84,21.064,13.81,21.029,13.783C20.868,13.655,20.665,13.596,20.463,13.581C20.434,13.58,20.406,13.579,20.378,13.579C20.328,13.58,20.278,13.583,20.229,13.594C20.205,13.606,20.181,13.62,20.157,13.634C20.068,13.689,19.985,13.754,19.913,13.831C19.869,13.877,19.83,13.928,19.794,13.982C19.65,14.201,19.597,14.471,19.589,14.729C19.586,14.802,19.586,14.875,19.592,14.948C19.597,15.027,19.608,15.106,19.62,15.184C19.635,15.286,19.653,15.388,19.671,15.489C19.694,15.618,19.719,15.746,19.745,15.874C19.784,16.068,19.825,16.261,19.867,16.454C19.926,16.727,19.988,17,20.051,17.273C20.136,17.64,20.223,18.006,20.311,18.371C20.516,19.218,20.727,20.063,20.942,20.907C21.246,22.104,21.557,23.3,21.872,24.495C22.544,27.048,23.232,29.596,23.93,32.142L24.072,32.66L24.123,32.843L24.149,32.975C24.15,33.005,24.153,33.035,24.155,33.065C24.165,33.107,24.174,33.149,24.185,33.191C24.215,33.304,24.249,33.415,24.283,33.527C24.409,33.93,24.539,34.332,24.665,34.735C24.781,35.108,24.894,35.482,25.002,35.858C25.205,36.572,25.387,37.293,25.534,38.021C25.676,38.725,25.786,39.437,25.84,40.153C25.856,40.357,25.866,40.56,25.872,40.764C25.883,41.196,25.87,41.63,25.822,42.06C25.78,42.428,25.712,42.794,25.608,43.149C25.564,43.301,25.512,43.451,25.455,43.599L25.438,43.639C25.42,43.68,25.417,43.69,25.394,43.728C25.343,43.813,25.271,43.886,25.186,43.937C25.129,43.971,25.067,43.997,25.002,44.011C24.806,44.056,24.596,43.999,24.449,43.863C24.4,43.819,24.358,43.766,24.326,43.708C24.254,43.577,24.232,43.421,24.264,43.275C24.28,43.207,24.309,43.143,24.334,43.079C24.35,43.034,24.366,42.989,24.381,42.943C24.542,42.45,24.613,41.933,24.635,41.416C24.659,40.838,24.624,40.259,24.556,39.685C24.484,39.082,24.376,38.483,24.246,37.89C24.084,37.155,23.888,36.428,23.673,35.706C23.503,35.138,23.32,34.575,23.142,34.009C23.066,34.002,22.992,33.985,22.92,33.96C22.793,33.915,22.677,33.841,22.581,33.747C22.52,33.687,22.487,33.638,22.437,33.572C22.42,33.549,22.402,33.526,22.384,33.503C22.332,33.435,22.332,33.436,22.279,33.368C22.113,33.162,21.942,32.961,21.762,32.767C21.619,32.614,21.47,32.466,21.315,32.324C21.193,32.211,21.066,32.103,20.935,31.999C20.538,31.685,20.098,31.413,19.619,31.243C19.329,31.141,19.024,31.076,18.716,31.077C18.73,31.117,18.745,31.156,18.76,31.196C18.848,31.416,18.949,31.631,19.057,31.842C19.158,32.04,19.266,32.234,19.379,32.426L19.395,32.453L19.41,32.476L19.453,32.557L19.488,32.641C19.535,32.77,19.581,32.899,19.626,33.029C19.967,34.005,20.29,34.988,20.577,35.982C20.695,36.388,20.806,36.797,20.906,37.208C20.988,37.547,21.063,37.888,21.12,38.232C21.148,38.401,21.17,38.571,21.187,38.742C21.211,38.989,21.224,39.238,21.237,39.486C21.248,39.728,21.259,39.971,21.272,40.213L21.287,40.477C21.32,41.001,21.365,41.524,21.434,42.045C21.527,42.748,21.659,43.445,21.831,44.133C22.338,46.157,23.184,48.083,24.23,49.884C24.414,50.201,24.605,50.515,24.799,50.825C25.083,51.278,25.377,51.724,25.688,52.158C25.913,52.472,26.148,52.78,26.396,53.077C26.702,53.443,27.031,53.792,27.39,54.107C27.658,54.342,27.943,54.556,28.241,54.752C28.633,55.011,29.044,55.241,29.448,55.479C29.553,55.541,29.657,55.603,29.76,55.666C29.94,55.776,30.118,55.887,30.293,56.003C30.595,56.202,30.89,56.412,31.176,56.633C31.581,56.945,31.97,57.278,32.346,57.625C32.564,57.827,32.777,58.034,32.988,58.244C33.452,58.707,33.902,59.184,34.331,59.679C34.866,60.297,35.372,60.943,35.815,61.631C36.173,62.186,36.493,62.771,36.718,63.394L36.722,63.406C37.265,63.335,37.805,63.239,38.34,63.12C38.904,62.995,39.462,62.844,40.011,62.665C40.97,62.352,41.905,61.953,42.772,61.437C43.035,61.281,43.291,61.114,43.538,60.935C43.763,60.773,43.981,60.601,44.195,60.424C44.493,60.178,44.781,59.921,45.059,59.653C45.697,59.041,46.284,58.374,46.814,57.666C47.24,57.099,47.63,56.504,47.974,55.884L45.552,53.573L45.566,53.584C45.542,53.565,45.519,53.545,45.496,53.525C45.413,53.45,45.336,53.371,45.266,53.285C44.927,52.869,44.753,52.346,44.65,51.826C44.63,51.726,44.613,51.626,44.598,51.526C44.579,51.401,44.563,51.275,44.549,51.149C44.531,50.972,44.516,50.794,44.505,50.616C44.491,50.376,44.481,50.135,44.476,49.895C44.469,49.58,44.467,49.264,44.468,48.949C44.47,48.48,44.478,48.012,44.487,47.543C44.498,46.951,44.511,46.359,44.522,45.766C44.526,45.481,44.531,45.196,44.534,44.911C44.541,44.237,44.54,43.562,44.542,42.888C44.546,42.128,44.552,41.368,44.555,40.608C44.557,39.942,44.558,39.276,44.529,38.61C44.501,37.936,44.442,37.258,44.278,36.602C44.202,36.302,44.104,36.007,43.986,35.72C43.931,35.585,43.87,35.453,43.809,35.321C43.762,35.22,43.716,35.12,43.67,35.019C43.577,34.814,43.485,34.609,43.393,34.404C43.21,33.991,43.027,33.578,42.842,33.166C42.752,32.966,42.661,32.765,42.569,32.565C42.321,32.026,42.067,31.489,41.78,30.97C41.662,30.755,41.538,30.543,41.401,30.34C41.276,30.155,41.141,29.976,40.974,29.827C40.818,29.688,40.638,29.578,40.445,29.497C40.279,29.427,40.104,29.379,39.926,29.349C39.64,29.3,39.347,29.295,39.058,29.322C38.869,29.339,38.682,29.371,38.498,29.417C38.412,29.438,38.325,29.463,38.241,29.494C38.381,29.73,38.531,29.96,38.687,30.187C38.947,30.564,39.224,30.93,39.524,31.277C39.72,31.502,39.925,31.721,40.146,31.922C40.33,32.09,40.525,32.248,40.744,32.369L40.77,32.385C40.795,32.401,40.82,32.418,40.843,32.438C40.905,32.49,40.956,32.554,40.993,32.626C41.021,32.68,41.04,32.738,41.051,32.797C41.062,32.857,41.064,32.918,41.058,32.978C41.036,33.17,40.922,33.345,40.754,33.442C40.684,33.483,40.606,33.509,40.526,33.52C40.446,33.531,40.364,33.525,40.286,33.505C40.247,33.494,40.209,33.48,40.173,33.462C40.142,33.447,40.112,33.43,40.083,33.412C40.004,33.367,39.928,33.318,39.853,33.266C39.57,33.071,39.312,32.841,39.069,32.599C38.84,32.37,38.625,32.128,38.419,31.879C38.191,31.604,37.976,31.32,37.77,31.028C37.593,30.778,37.424,30.521,37.263,30.26C37.102,29.997,36.951,29.729,36.816,29.452L36.803,29.425C36.793,29.4,36.79,29.394,36.782,29.368C36.777,29.352,36.772,29.336,36.769,29.32C36.732,29.263,36.715,29.223,36.686,29.163C36.661,29.112,36.655,29.099,36.63,29.049C36.601,28.991,36.571,28.934,36.541,28.877C36.358,28.539,36.154,28.213,35.917,27.91C35.837,27.809,35.754,27.71,35.667,27.615C35.594,27.535,35.519,27.456,35.434,27.388C35.32,27.294,35.192,27.218,35.057,27.158C34.948,27.11,34.834,27.072,34.718,27.042C34.476,26.981,34.225,26.957,33.975,26.957C33.727,26.956,33.479,26.979,33.234,27.02C33.042,27.052,32.853,27.095,32.666,27.149C32.527,27.189,32.389,27.235,32.255,27.29C32.245,27.294,32.235,27.298,32.224,27.303C32.367,27.577,32.511,27.852,32.653,28.127C33.032,28.862,33.402,29.602,33.757,30.348C34.149,31.173,34.524,32.006,34.887,32.844L34.901,32.879C34.913,32.916,34.924,32.951,34.93,32.989C34.944,33.077,34.939,33.167,34.916,33.253C34.899,33.314,34.872,33.372,34.838,33.425C34.803,33.478,34.761,33.526,34.712,33.566C34.593,33.663,34.441,33.713,34.288,33.704C34.225,33.701,34.162,33.688,34.103,33.665C34.032,33.639,33.966,33.598,33.909,33.548C33.862,33.505,33.822,33.456,33.79,33.401C33.773,33.372,33.77,33.364,33.755,33.334C33.677,33.153,33.599,32.973,33.519,32.792C33.085,31.81,32.632,30.836,32.155,29.873C31.959,29.478,31.76,29.085,31.557,28.693C31.357,28.304,31.153,27.916,30.951,27.527L30.896,27.42C30.882,27.39,30.878,27.382,30.866,27.352C30.857,27.343,30.847,27.334,30.838,27.325C30.805,27.293,30.774,27.259,30.746,27.222C30.697,27.157,30.661,27.085,30.619,27.016C30.603,26.989,30.586,26.962,30.568,26.936C30.499,26.835,30.42,26.74,30.329,26.657C30.284,26.615,30.236,26.577,30.186,26.542C29.864,26.313,29.465,26.224,29.075,26.206C29.015,26.204,28.954,26.203,28.894,26.203C28.808,26.204,28.723,26.208,28.638,26.214C28.529,26.223,28.42,26.235,28.312,26.252C28.175,26.273,28.039,26.299,27.905,26.332C27.761,26.366,27.62,26.407,27.48,26.454C27.428,26.472,27.376,26.49,27.325,26.51L27.403,26.711C27.781,27.682,28.177,28.647,28.596,29.601C28.888,30.266,29.191,30.927,29.51,31.579C29.748,32.064,29.993,32.546,30.263,33.014C30.352,33.168,30.443,33.32,30.543,33.467C30.575,33.515,30.609,33.563,30.645,33.609C30.665,33.634,30.685,33.661,30.708,33.683L30.712,33.687C30.741,33.712,30.749,33.718,30.774,33.746C30.832,33.81,30.876,33.886,30.903,33.968C30.925,34.036,30.936,34.108,30.933,34.18C30.932,34.237,30.922,34.294,30.904,34.349C30.851,34.514,30.727,34.652,30.569,34.723C30.517,34.746,30.461,34.762,30.404,34.77C30.333,34.78,30.261,34.778,30.19,34.763C30.12,34.749,30.053,34.721,29.992,34.684C29.95,34.657,29.911,34.626,29.875,34.592C29.825,34.547,29.779,34.497,29.735,34.445C29.605,34.291,29.494,34.122,29.388,33.952C29.266,33.757,29.152,33.558,29.041,33.358C28.884,33.072,28.734,32.784,28.587,32.493C28.164,31.653,27.773,30.798,27.397,29.937C26.917,28.837,26.467,27.724,26.04,26.603L26.026,26.562C26.017,26.525,26.013,26.516,26.007,26.478C26.001,26.438,25.999,26.397,26.001,26.356zM17.78,33.356L17.81,33.406C17.803,33.394,17.796,33.383,17.789,33.371C17.781,33.358,17.777,33.347,17.78,33.356zM38.22,29.457L38.22,29.459C38.235,29.444,38.237,29.442,38.255,29.421L38.22,29.457Z"/>
        </g>
        <g opacity="0" style="animation: a3_o 6s linear infinite both;">
            <path fill="#fff" fill-opacity="0.749" d="M17.482,16.741C17.414,15.263,18.292,14.713,18.649,14.533C19.005,14.343,20.356,14.296,20.925,15.472C21.302,16.267,24.71,22.074,26.861,26.715C27.362,26.43,30.267,25.291,31.482,26.662C31.858,26.321,34.723,25.336,36.218,26.852C36.787,27.43,37.23,28.151,37.549,28.823C37.76,28.557,40.343,27.746,41.8,29.345C42.71,30.344,43.729,32.955,44.694,35.031C45.659,37.106,45.465,38.812,45.465,43.787C45.465,48.763,45.061,52.013,46.161,52.876L49.112,55.691C49.112,55.691,47.655,58.989,44.241,61.566C40.808,64.144,36.015,64.408,36.015,64.408C36.015,64.408,36.015,62.513,32.156,58.723C28.3,54.932,27.335,56.827,23.681,50.772C20.026,44.716,20.46,40.546,20.257,38.746C20.064,36.935,18.618,32.955,18.618,32.955C18.618,32.955,17.21,30.661,17.866,30.32C18.531,29.989,20.789,29.824,23.231,33.089C23.231,33.089,17.56,18.617,17.482,16.741z"/>
            <path fill="#2f323e" d="M34.089,25.108C34.182,25.11,34.276,25.114,34.369,25.121C34.64,25.141,34.91,25.182,35.173,25.249C35.575,25.351,35.962,25.513,36.31,25.74C36.458,25.836,36.598,25.944,36.729,26.062C36.813,26.137,36.893,26.218,36.97,26.3C37.041,26.375,37.11,26.452,37.178,26.531C37.474,26.877,37.734,27.252,37.968,27.643C38.02,27.629,38.071,27.617,38.123,27.604C38.611,27.491,39.113,27.44,39.614,27.46C40.008,27.477,40.402,27.538,40.78,27.654C41.042,27.734,41.296,27.84,41.536,27.973C41.851,28.148,42.138,28.367,42.391,28.623C42.595,28.831,42.773,29.065,42.935,29.306C43.14,29.61,43.323,29.929,43.496,30.252C43.836,30.888,44.14,31.544,44.437,32.202C44.685,32.751,44.927,33.303,45.173,33.853C45.263,34.052,45.353,34.25,45.444,34.449C45.49,34.549,45.536,34.648,45.581,34.748C45.605,34.802,45.629,34.855,45.652,34.909C45.734,35.104,45.811,35.3,45.879,35.5C45.995,35.84,46.088,36.189,46.16,36.542C46.292,37.197,46.349,37.864,46.378,38.531C46.405,39.17,46.407,39.809,46.406,40.448C46.403,41.264,46.396,42.079,46.392,42.895C46.391,43.348,46.391,43.8,46.389,44.253C46.388,44.479,46.386,44.705,46.384,44.931C46.371,45.994,46.345,47.056,46.327,48.119C46.324,48.29,46.322,48.46,46.32,48.631C46.316,49.128,46.315,49.626,46.333,50.123C46.348,50.515,46.372,50.908,46.434,51.295C46.453,51.416,46.476,51.536,46.507,51.654C46.529,51.743,46.556,51.83,46.59,51.915C46.61,51.965,46.633,52.014,46.661,52.06C46.68,52.091,46.701,52.123,46.73,52.147L46.737,52.152L46.799,52.206L49.75,55.021C49.778,55.052,49.809,55.081,49.835,55.114C49.887,55.18,49.931,55.253,49.964,55.331C50.046,55.525,50.059,55.745,50,55.948C49.977,56.026,49.943,56.099,49.908,56.172C49.846,56.301,49.782,56.428,49.715,56.554C49.499,56.963,49.261,57.362,49.01,57.75C48.669,58.277,48.301,58.785,47.908,59.274C47.258,60.082,46.54,60.837,45.76,61.521C45.555,61.701,45.345,61.876,45.132,62.046C44.822,62.292,44.504,62.527,44.172,62.743C43.904,62.918,43.63,63.083,43.349,63.238C42.694,63.6,42.01,63.908,41.309,64.17C40.548,64.455,39.767,64.687,38.976,64.872C38.407,65.006,37.833,65.115,37.255,65.2C36.868,65.257,36.478,65.304,36.087,65.331L36.07,65.332C35.95,65.33,35.918,65.336,35.801,65.308C35.536,65.245,35.307,65.063,35.186,64.819C35.146,64.738,35.118,64.652,35.103,64.563C35.096,64.518,35.095,64.473,35.09,64.428L35.09,64.435C35.091,64.442,35.091,64.442,35.091,64.448L35.091,64.442C35.088,64.422,35.085,64.402,35.081,64.382C35.049,64.221,34.996,64.064,34.937,63.911C34.853,63.697,34.753,63.489,34.645,63.285C34.497,63.006,34.331,62.736,34.155,62.474C33.935,62.143,33.698,61.824,33.451,61.514C32.952,60.886,32.411,60.292,31.848,59.722C31.6,59.47,31.348,59.222,31.089,58.982C30.713,58.635,30.322,58.303,29.912,57.996C29.609,57.768,29.295,57.555,28.974,57.354C28.631,57.14,28.28,56.939,27.931,56.734C27.833,56.676,27.736,56.618,27.639,56.56C27.374,56.397,27.112,56.228,26.859,56.046C26.551,55.824,26.257,55.583,25.978,55.325C25.425,54.813,24.934,54.238,24.48,53.637C24.003,53.006,23.565,52.345,23.147,51.672C22.898,51.271,22.657,50.866,22.425,50.455C22.107,49.888,21.808,49.312,21.531,48.724C20.797,47.164,20.222,45.527,19.865,43.838C19.692,43.016,19.571,42.184,19.497,41.348C19.466,41.003,19.443,40.658,19.425,40.312C19.408,39.997,19.395,39.681,19.378,39.366C19.373,39.272,19.367,39.178,19.36,39.084C19.35,38.955,19.337,38.826,19.319,38.697C19.28,38.415,19.222,38.135,19.159,37.858C19.072,37.48,18.973,37.104,18.868,36.731C18.736,36.264,18.595,35.8,18.448,35.338C18.255,34.733,18.052,34.13,17.842,33.531L17.81,33.44C17.799,33.411,17.79,33.381,17.779,33.353C17.774,33.343,17.767,33.334,17.762,33.324C17.726,33.263,17.726,33.263,17.69,33.2C17.659,33.146,17.629,33.093,17.599,33.039C17.438,32.744,17.284,32.445,17.149,32.137C17.052,31.915,16.963,31.689,16.894,31.457C16.788,31.103,16.722,30.721,16.801,30.355C16.825,30.243,16.863,30.133,16.915,30.031C17.008,29.847,17.146,29.688,17.317,29.572C17.427,29.498,17.549,29.444,17.673,29.399C17.907,29.314,18.154,29.265,18.403,29.242C18.501,29.233,18.6,29.229,18.699,29.228C18.836,29.226,18.973,29.233,19.109,29.245C19.275,29.261,19.439,29.286,19.601,29.321C19.817,29.366,20.028,29.426,20.236,29.5C20.486,29.588,20.728,29.696,20.964,29.817L20.981,29.826C20.801,29.353,20.621,28.879,20.441,28.404C20.267,27.942,20.093,27.48,19.919,27.017C19.427,25.697,18.939,24.376,18.464,23.049C18.111,22.062,17.764,21.073,17.435,20.078C17.221,19.43,17.012,18.78,16.831,18.123C16.767,17.894,16.708,17.665,16.656,17.433C16.617,17.257,16.584,17.079,16.567,16.9C16.559,16.818,16.556,16.736,16.554,16.655C16.552,16.517,16.556,16.379,16.568,16.241C16.592,15.954,16.649,15.67,16.743,15.398C16.874,15.023,17.077,14.674,17.344,14.38C17.486,14.223,17.645,14.082,17.817,13.958C17.909,13.892,18.005,13.832,18.103,13.776C18.173,13.737,18.245,13.698,18.319,13.666C18.383,13.639,18.448,13.616,18.515,13.596C18.71,13.539,18.914,13.513,19.118,13.506C19.433,13.497,19.75,13.537,20.052,13.626C20.356,13.714,20.645,13.853,20.901,14.038C21.173,14.235,21.406,14.483,21.588,14.766C21.634,14.839,21.678,14.913,21.718,14.99C21.752,15.056,21.784,15.123,21.818,15.189C21.866,15.281,21.915,15.372,21.964,15.463C22.054,15.629,22.146,15.794,22.237,15.959C22.626,16.66,23.017,17.359,23.406,18.06C24.254,19.593,25.092,21.131,25.9,22.686C26.386,23.624,26.863,24.567,27.32,25.52C27.371,25.502,27.424,25.485,27.476,25.467C27.676,25.403,27.877,25.344,28.08,25.293C28.239,25.254,28.399,25.218,28.559,25.188C28.694,25.163,28.829,25.142,28.964,25.125C29.068,25.111,29.173,25.1,29.278,25.092C29.949,25.04,30.645,25.1,31.264,25.381C31.376,25.432,31.484,25.49,31.588,25.555L31.597,25.56C31.64,25.543,31.683,25.527,31.726,25.511C31.775,25.493,31.825,25.476,31.874,25.459C32.431,25.273,33.012,25.155,33.598,25.119C33.724,25.111,33.851,25.107,33.978,25.107C34.033,25.107,34.033,25.107,34.089,25.108zM26.087,27.222C26.067,27.19,26.051,27.157,26.022,27.105C25.955,26.96,25.887,26.816,25.82,26.672C25.68,26.378,25.539,26.083,25.395,25.79C24.878,24.732,24.339,23.685,23.789,22.643C23.269,21.658,22.738,20.679,22.201,19.704C21.677,18.752,21.146,17.805,20.619,16.856C20.525,16.686,20.432,16.517,20.339,16.346C20.284,16.246,20.23,16.145,20.177,16.043C20.156,16.003,20.135,15.963,20.115,15.922C20.1,15.892,20.086,15.861,20.07,15.831C20.057,15.809,20.045,15.787,20.031,15.765C19.991,15.703,19.944,15.646,19.89,15.596C19.718,15.439,19.486,15.368,19.257,15.356C19.236,15.355,19.215,15.355,19.194,15.355C19.145,15.356,19.094,15.358,19.045,15.369C19.021,15.382,18.997,15.396,18.973,15.41C18.878,15.468,18.79,15.538,18.715,15.621C18.675,15.666,18.638,15.714,18.605,15.765C18.478,15.966,18.423,16.204,18.408,16.439C18.404,16.5,18.403,16.561,18.404,16.622C18.404,16.656,18.405,16.691,18.408,16.725C18.413,16.777,18.422,16.83,18.432,16.882C18.446,16.958,18.462,17.032,18.479,17.107C18.519,17.282,18.565,17.456,18.613,17.629C18.653,17.772,18.694,17.915,18.736,18.057C18.81,18.306,18.887,18.553,18.965,18.8C19.071,19.132,19.18,19.463,19.29,19.793C19.585,20.675,19.893,21.552,20.206,22.427C20.592,23.506,20.987,24.582,21.386,25.657C22.248,27.975,23.131,30.285,24.029,32.59L24.092,32.752C24.105,32.794,24.122,32.836,24.132,32.879C24.146,32.941,24.154,33.004,24.155,33.068L24.185,33.191C24.215,33.304,24.249,33.415,24.283,33.527C24.409,33.93,24.539,34.332,24.665,34.735C24.781,35.108,24.894,35.482,25.002,35.858C25.205,36.572,25.387,37.293,25.534,38.021C25.676,38.725,25.786,39.437,25.84,40.153C25.856,40.357,25.866,40.56,25.872,40.764C25.883,41.196,25.87,41.63,25.822,42.06C25.78,42.428,25.712,42.794,25.608,43.149C25.564,43.301,25.512,43.451,25.455,43.599L25.438,43.639C25.42,43.68,25.417,43.69,25.394,43.728C25.343,43.813,25.271,43.886,25.186,43.937C25.129,43.971,25.067,43.997,25.002,44.011C24.806,44.056,24.596,43.999,24.449,43.863C24.4,43.819,24.358,43.766,24.326,43.708C24.254,43.577,24.232,43.421,24.264,43.275C24.28,43.207,24.309,43.143,24.334,43.079C24.35,43.034,24.366,42.989,24.381,42.943C24.542,42.45,24.613,41.933,24.635,41.416C24.659,40.838,24.624,40.259,24.556,39.685C24.484,39.082,24.376,38.483,24.246,37.89C24.084,37.155,23.888,36.428,23.673,35.706C23.503,35.138,23.32,34.575,23.142,34.009C23.108,34.006,23.074,34.001,23.04,33.994C22.867,33.957,22.705,33.87,22.579,33.745C22.519,33.686,22.486,33.637,22.437,33.572C22.42,33.549,22.402,33.526,22.384,33.503L22.279,33.368C22.113,33.162,21.942,32.961,21.762,32.768C21.619,32.614,21.47,32.466,21.315,32.324C21.193,32.211,21.066,32.103,20.935,31.999C20.538,31.685,20.098,31.413,19.618,31.243C19.329,31.141,19.024,31.076,18.716,31.077C18.73,31.117,18.745,31.157,18.761,31.196C18.848,31.416,18.949,31.631,19.057,31.842C19.158,32.04,19.266,32.234,19.379,32.426L19.395,32.452L19.41,32.476L19.453,32.557L19.488,32.641C19.535,32.77,19.581,32.899,19.626,33.029C19.967,34.005,20.29,34.988,20.577,35.982C20.695,36.388,20.806,36.797,20.906,37.208C20.992,37.564,21.071,37.923,21.128,38.285C21.155,38.454,21.176,38.622,21.192,38.792C21.213,39.023,21.225,39.254,21.237,39.486C21.248,39.728,21.259,39.971,21.272,40.213L21.287,40.476C21.32,41.001,21.365,41.524,21.434,42.046C21.522,42.714,21.647,43.378,21.807,44.034C22.311,46.094,23.167,48.054,24.23,49.884C24.414,50.201,24.605,50.515,24.799,50.825C25.083,51.278,25.377,51.724,25.688,52.157C25.895,52.446,26.109,52.729,26.335,53.004C26.659,53.397,27.007,53.771,27.39,54.107C27.658,54.342,27.944,54.556,28.241,54.752C28.633,55.011,29.044,55.241,29.448,55.479C29.553,55.541,29.657,55.603,29.76,55.666C29.988,55.805,30.213,55.947,30.434,56.097C30.714,56.286,30.988,56.485,31.255,56.694C31.632,56.988,31.995,57.3,32.346,57.625C32.595,57.855,32.838,58.093,33.077,58.334C33.51,58.769,33.929,59.216,34.331,59.679C34.866,60.297,35.372,60.943,35.815,61.631C36.173,62.186,36.493,62.771,36.718,63.394L36.723,63.406C37.314,63.328,37.901,63.222,38.482,63.088C38.997,62.969,39.508,62.829,40.011,62.665C40.97,62.352,41.904,61.953,42.772,61.437C43.035,61.281,43.291,61.114,43.539,60.935C43.764,60.773,43.981,60.601,44.195,60.424C44.493,60.178,44.781,59.921,45.059,59.654C45.714,59.025,46.314,58.34,46.855,57.612C47.265,57.061,47.641,56.484,47.974,55.884L45.552,53.573L45.566,53.584C45.542,53.564,45.518,53.544,45.495,53.524C45.42,53.456,45.35,53.384,45.285,53.307C44.933,52.888,44.754,52.355,44.65,51.826C44.634,51.746,44.62,51.667,44.607,51.587C44.587,51.463,44.571,51.338,44.556,51.213C44.539,51.06,44.526,50.906,44.515,50.753C44.499,50.541,44.489,50.33,44.482,50.118C44.473,49.837,44.469,49.556,44.468,49.275C44.467,48.88,44.471,48.485,44.477,48.09C44.49,47.315,44.508,46.541,44.522,45.766C44.53,45.259,44.537,44.751,44.539,44.244C44.541,43.792,44.541,43.34,44.542,42.888C44.546,42.128,44.552,41.368,44.555,40.608C44.557,39.942,44.558,39.276,44.529,38.611C44.501,37.936,44.442,37.259,44.278,36.602C44.202,36.302,44.104,36.007,43.986,35.72C43.931,35.586,43.87,35.453,43.809,35.321C43.762,35.22,43.716,35.12,43.67,35.019C43.577,34.814,43.485,34.609,43.393,34.404C43.21,33.991,43.027,33.579,42.842,33.166C42.752,32.966,42.661,32.765,42.569,32.565C42.321,32.026,42.067,31.489,41.78,30.97C41.662,30.755,41.538,30.543,41.401,30.34C41.283,30.164,41.155,29.993,40.999,29.849C40.836,29.7,40.648,29.582,40.445,29.497C40.279,29.428,40.104,29.38,39.926,29.349C39.64,29.3,39.346,29.295,39.058,29.322C38.877,29.339,38.698,29.368,38.522,29.411C38.427,29.434,38.333,29.46,38.241,29.494C38.381,29.73,38.531,29.96,38.687,30.187C38.947,30.564,39.224,30.93,39.524,31.277C39.72,31.502,39.925,31.721,40.146,31.922C40.33,32.09,40.525,32.248,40.744,32.369L40.77,32.385C40.795,32.401,40.82,32.418,40.843,32.438C40.905,32.49,40.956,32.554,40.993,32.626C41.021,32.68,41.04,32.738,41.051,32.797C41.062,32.857,41.064,32.918,41.058,32.978C41.036,33.17,40.922,33.345,40.754,33.442C40.684,33.483,40.606,33.509,40.526,33.52C40.446,33.531,40.364,33.525,40.286,33.505C40.247,33.494,40.209,33.48,40.173,33.462C40.142,33.447,40.112,33.43,40.083,33.412C40.004,33.367,39.928,33.318,39.853,33.266C39.57,33.071,39.312,32.841,39.069,32.599C38.84,32.37,38.625,32.128,38.419,31.879C38.191,31.604,37.976,31.32,37.77,31.028C37.593,30.778,37.424,30.521,37.263,30.26C37.102,29.997,36.951,29.729,36.816,29.452L36.803,29.425C36.793,29.4,36.79,29.394,36.782,29.368C36.777,29.352,36.772,29.336,36.769,29.32C36.732,29.262,36.715,29.223,36.686,29.163C36.661,29.112,36.655,29.099,36.63,29.049C36.601,28.991,36.571,28.934,36.541,28.877C36.358,28.539,36.154,28.213,35.917,27.91C35.837,27.809,35.754,27.71,35.667,27.615C35.594,27.535,35.518,27.456,35.434,27.388C35.328,27.301,35.21,27.229,35.085,27.171C34.967,27.116,34.844,27.074,34.718,27.042C34.476,26.981,34.225,26.957,33.975,26.957C33.751,26.956,33.528,26.975,33.306,27.009C33.09,27.042,32.876,27.088,32.666,27.149C32.527,27.189,32.389,27.235,32.255,27.29C32.245,27.294,32.234,27.298,32.224,27.303C32.367,27.578,32.511,27.852,32.653,28.127C33.032,28.862,33.402,29.602,33.757,30.348C34.149,31.173,34.524,32.006,34.887,32.844L34.901,32.879C34.913,32.916,34.924,32.951,34.93,32.989C34.944,33.077,34.939,33.167,34.916,33.253C34.899,33.314,34.872,33.372,34.838,33.425C34.803,33.478,34.761,33.526,34.712,33.566C34.593,33.663,34.441,33.713,34.288,33.704C34.225,33.701,34.162,33.688,34.103,33.665C34.032,33.639,33.966,33.598,33.909,33.548C33.862,33.505,33.822,33.456,33.79,33.401C33.773,33.372,33.77,33.364,33.755,33.334C33.677,33.153,33.599,32.973,33.519,32.792C33.085,31.81,32.632,30.836,32.155,29.873C31.959,29.478,31.76,29.085,31.557,28.693C31.357,28.304,31.153,27.916,30.951,27.527L30.896,27.42C30.882,27.39,30.877,27.382,30.866,27.351C30.841,27.328,30.818,27.303,30.794,27.28C30.779,27.265,30.765,27.249,30.75,27.234C30.734,27.218,30.717,27.203,30.7,27.188C30.587,27.098,30.454,27.038,30.315,26.999C30.162,26.956,30.002,26.936,29.843,26.928C29.565,26.916,29.285,26.942,29.011,26.987C28.663,27.045,28.321,27.134,27.987,27.247C27.859,27.29,27.731,27.337,27.605,27.388L27.512,27.427C27.816,28.14,28.132,28.848,28.46,29.55C28.772,30.217,29.094,30.879,29.432,31.533C29.672,31.997,29.918,32.459,30.185,32.908C30.284,33.076,30.386,33.241,30.494,33.403C30.532,33.458,30.571,33.514,30.611,33.567C30.641,33.607,30.672,33.647,30.707,33.682C30.709,33.684,30.71,33.685,30.712,33.686C30.74,33.712,30.748,33.717,30.774,33.746C30.832,33.809,30.876,33.885,30.903,33.967C30.925,34.035,30.936,34.107,30.933,34.179C30.931,34.251,30.916,34.322,30.89,34.389C30.863,34.455,30.825,34.517,30.777,34.571C30.661,34.7,30.493,34.776,30.319,34.776C30.262,34.777,30.205,34.769,30.149,34.753C30.094,34.738,30.041,34.714,29.992,34.684C29.95,34.658,29.912,34.626,29.875,34.593C29.825,34.547,29.779,34.497,29.735,34.446C29.603,34.291,29.489,34.121,29.378,33.95C29.23,33.721,29.092,33.486,28.957,33.249C28.811,32.993,28.67,32.734,28.532,32.473C28.114,31.684,27.721,30.881,27.343,30.072C26.903,29.131,26.486,28.181,26.087,27.222zM17.78,33.356L17.81,33.406C17.803,33.395,17.796,33.383,17.789,33.371C17.781,33.358,17.777,33.347,17.78,33.356zM38.22,29.457L38.22,29.459C38.235,29.444,38.238,29.441,38.255,29.421L38.22,29.457Z"/>
        </g>
        <g opacity="0" style="animation: a4_o 6s linear infinite both;">
            <path fill="#fff" fill-opacity="0.749" d="M16.281,18.848C16.213,17.37,17.091,16.821,17.447,16.641C17.804,16.451,19.154,16.403,19.723,17.579C20.1,18.375,24.492,23.186,27.318,28.041C27.819,27.756,28.942,26.337,31.28,27.598C34.191,25.922,37.23,28.151,37.549,28.823C37.76,28.557,40.059,28.229,41.516,29.827C42.426,30.827,43.729,32.955,44.694,35.031C45.659,37.106,45.465,38.812,45.465,43.787C45.465,48.763,45.061,52.013,46.161,52.876L49.112,55.691C49.112,55.691,47.655,58.989,44.241,61.566C40.808,64.144,36.015,64.408,36.015,64.408C36.015,64.408,36.015,62.513,32.156,58.723C28.3,54.932,27.335,56.827,23.681,50.772C20.026,44.716,20.46,40.546,20.257,38.746C20.064,36.935,18.618,32.955,18.618,32.955C18.618,32.955,17.21,30.661,17.866,30.32C18.531,29.989,20.789,29.824,23.231,33.089C23.231,33.089,16.358,20.725,16.281,18.848z"/>
            <path fill="#2f323e" d="M17.78,33.356L17.779,33.353C17.774,33.343,17.767,33.334,17.762,33.324C17.725,33.262,17.725,33.262,17.69,33.2C17.642,33.116,17.595,33.032,17.549,32.947C17.406,32.682,17.27,32.413,17.149,32.137C17.057,31.926,16.972,31.712,16.905,31.492C16.802,31.159,16.733,30.803,16.783,30.455C16.802,30.328,16.836,30.204,16.888,30.087C16.923,30.009,16.966,29.934,17.017,29.864C17.113,29.731,17.236,29.618,17.377,29.534C17.48,29.473,17.592,29.427,17.705,29.387C17.93,29.309,18.166,29.264,18.403,29.242C18.516,29.232,18.629,29.227,18.743,29.227C18.865,29.228,18.987,29.234,19.109,29.245C19.274,29.261,19.439,29.286,19.601,29.321C19.814,29.365,20.022,29.425,20.227,29.497C20.075,29.21,19.922,28.923,19.77,28.635C19.116,27.396,18.47,26.153,17.841,24.901C17.378,23.98,16.926,23.054,16.497,22.117C16.362,21.821,16.229,21.523,16.101,21.224C15.973,20.927,15.85,20.628,15.736,20.325C15.647,20.09,15.564,19.853,15.494,19.612C15.442,19.432,15.396,19.249,15.372,19.063C15.357,18.949,15.353,18.834,15.352,18.719C15.35,18.416,15.38,18.112,15.451,17.817C15.537,17.457,15.684,17.111,15.892,16.804C15.978,16.678,16.074,16.559,16.178,16.447C16.321,16.296,16.479,16.16,16.649,16.042C16.74,15.978,16.834,15.92,16.931,15.867C16.975,15.843,17.02,15.819,17.066,15.797C17.115,15.774,17.165,15.753,17.217,15.735C17.423,15.662,17.644,15.627,17.862,15.616C18.206,15.599,18.553,15.642,18.881,15.742C19.198,15.839,19.497,15.989,19.76,16.191C19.995,16.371,20.199,16.591,20.362,16.837C20.41,16.909,20.454,16.983,20.495,17.059C20.509,17.084,20.523,17.112,20.536,17.137C20.544,17.152,20.551,17.168,20.559,17.183C20.575,17.209,20.591,17.235,20.608,17.261C20.703,17.4,20.804,17.535,20.907,17.669C21.067,17.878,21.231,18.084,21.395,18.29C21.812,18.813,22.231,19.333,22.648,19.856C23.174,20.516,23.696,21.18,24.208,21.851C25.142,23.076,26.047,24.323,26.894,25.61C27.12,25.952,27.34,26.297,27.557,26.645L27.597,26.711C27.637,26.687,27.677,26.663,27.717,26.64C27.749,26.622,27.782,26.604,27.814,26.586C28.074,26.449,28.346,26.339,28.631,26.266C29.075,26.153,29.539,26.132,29.993,26.193C30.309,26.235,30.619,26.315,30.918,26.423C31.036,26.466,31.153,26.513,31.268,26.563C31.309,26.545,31.349,26.527,31.389,26.509C31.733,26.361,32.09,26.247,32.457,26.172C32.813,26.099,33.175,26.064,33.539,26.062L33.616,26.062C33.857,26.066,34.098,26.083,34.337,26.116C35.102,26.22,35.847,26.471,36.53,26.829C37.002,27.077,37.45,27.377,37.842,27.739L37.844,27.741C37.887,27.733,37.93,27.726,37.974,27.72C38.02,27.713,38.067,27.708,38.114,27.702C38.493,27.663,38.876,27.67,39.254,27.717C39.748,27.779,40.234,27.911,40.689,28.114C41.127,28.311,41.535,28.574,41.89,28.896C42.173,29.152,42.418,29.445,42.651,29.745C42.971,30.156,43.266,30.586,43.548,31.024C43.812,31.435,44.064,31.853,44.307,32.276C44.582,32.757,44.844,33.244,45.094,33.738C45.211,33.97,45.326,34.204,45.438,34.44C45.545,34.665,45.648,34.891,45.74,35.123C45.894,35.512,46.018,35.911,46.112,36.319C46.278,37.044,46.346,37.789,46.378,38.531C46.405,39.17,46.407,39.809,46.406,40.448C46.403,41.264,46.396,42.079,46.392,42.895C46.391,43.348,46.391,43.8,46.389,44.253C46.388,44.479,46.386,44.705,46.384,44.931C46.371,45.994,46.344,47.056,46.327,48.119C46.324,48.29,46.322,48.46,46.32,48.631C46.316,49.128,46.315,49.626,46.333,50.123C46.341,50.327,46.352,50.532,46.368,50.735C46.384,50.923,46.404,51.11,46.434,51.295C46.453,51.416,46.476,51.536,46.507,51.654C46.529,51.743,46.556,51.83,46.59,51.915C46.61,51.965,46.633,52.014,46.661,52.06C46.682,52.094,46.705,52.127,46.737,52.152L46.799,52.206L49.75,55.021L49.835,55.114C49.859,55.149,49.885,55.182,49.907,55.218C49.95,55.291,49.983,55.369,50.005,55.45C50.049,55.613,50.047,55.787,49.999,55.95C49.97,56.051,49.92,56.147,49.874,56.242C49.812,56.369,49.747,56.495,49.68,56.619C49.433,57.081,49.16,57.529,48.869,57.965C48.568,58.415,48.247,58.852,47.907,59.274C47.236,60.108,46.493,60.886,45.684,61.587C45.477,61.767,45.265,61.942,45.05,62.111C44.766,62.334,44.475,62.546,44.172,62.743C43.963,62.879,43.75,63.01,43.534,63.134C42.795,63.557,42.017,63.91,41.218,64.204C40.485,64.473,39.735,64.694,38.976,64.872C38.407,65.006,37.833,65.115,37.255,65.2C36.868,65.257,36.478,65.304,36.088,65.331L36.07,65.332C35.96,65.331,35.931,65.336,35.823,65.313C35.661,65.279,35.509,65.2,35.388,65.088C35.296,65.004,35.222,64.901,35.172,64.788C35.138,64.712,35.114,64.633,35.101,64.551C35.095,64.51,35.094,64.468,35.09,64.427L35.09,64.435C35.09,64.436,35.092,64.456,35.091,64.443C35.088,64.422,35.085,64.402,35.081,64.382C35.047,64.211,34.99,64.045,34.926,63.883C34.838,63.664,34.735,63.451,34.623,63.244C34.47,62.96,34.299,62.686,34.119,62.419C33.893,62.085,33.651,61.762,33.398,61.447C32.914,60.844,32.391,60.272,31.848,59.722C31.575,59.444,31.296,59.171,31.009,58.908C30.658,58.587,30.293,58.281,29.913,57.996C29.609,57.768,29.295,57.555,28.974,57.354C28.631,57.14,28.28,56.939,27.931,56.734C27.833,56.676,27.736,56.618,27.639,56.56C27.374,56.397,27.112,56.228,26.859,56.046C26.551,55.824,26.257,55.583,25.978,55.325C25.425,54.813,24.934,54.238,24.48,53.638C24.003,53.006,23.565,52.345,23.147,51.672C22.899,51.271,22.657,50.866,22.425,50.455C22.083,49.846,21.763,49.224,21.469,48.59C20.779,47.103,20.235,45.546,19.888,43.942C19.702,43.087,19.574,42.22,19.497,41.348C19.466,41.003,19.443,40.658,19.425,40.312C19.408,39.997,19.395,39.681,19.378,39.366C19.373,39.272,19.367,39.178,19.36,39.084C19.35,38.955,19.337,38.826,19.319,38.697C19.275,38.379,19.208,38.064,19.134,37.752C19.053,37.409,18.963,37.069,18.868,36.731C18.726,36.227,18.572,35.726,18.413,35.228C18.231,34.659,18.04,34.094,17.842,33.531L17.81,33.44C17.8,33.412,17.791,33.383,17.78,33.356zM26.112,27.827C24.955,25.943,23.653,24.151,22.3,22.404C21.895,21.882,21.486,21.364,21.074,20.848C20.699,20.379,20.323,19.912,19.948,19.443C19.857,19.329,19.766,19.214,19.675,19.099C19.549,18.937,19.422,18.775,19.3,18.61C19.195,18.469,19.091,18.327,18.999,18.177C18.967,18.126,18.937,18.074,18.909,18.02C18.893,17.988,18.878,17.956,18.86,17.924C18.848,17.903,18.835,17.881,18.821,17.861C18.781,17.8,18.734,17.745,18.68,17.696C18.509,17.544,18.281,17.475,18.056,17.463C18.035,17.463,18.014,17.462,17.993,17.462C17.943,17.463,17.892,17.466,17.843,17.477C17.819,17.489,17.795,17.503,17.771,17.517C17.693,17.566,17.619,17.621,17.554,17.686C17.51,17.729,17.47,17.776,17.435,17.826C17.29,18.03,17.226,18.278,17.208,18.525C17.203,18.593,17.201,18.662,17.202,18.73C17.203,18.761,17.202,18.793,17.206,18.824C17.215,18.887,17.23,18.949,17.246,19.011C17.272,19.108,17.302,19.204,17.334,19.3C17.419,19.557,17.517,19.81,17.619,20.061C17.694,20.245,17.772,20.428,17.851,20.61C17.977,20.901,18.107,21.19,18.239,21.478C18.594,22.247,18.964,23.008,19.342,23.766C19.807,24.701,20.284,25.63,20.767,26.555C21.274,27.529,21.789,28.498,22.309,29.465C22.757,30.3,23.21,31.133,23.666,31.963C23.709,31.999,23.747,32.041,23.778,32.088C23.822,32.154,23.852,32.228,23.884,32.301C23.92,32.384,23.956,32.467,23.99,32.551L24.04,32.641C24.058,32.68,24.08,32.719,24.096,32.76C24.116,32.815,24.132,32.871,24.142,32.928C24.229,33.153,24.313,33.379,24.395,33.606C24.518,33.95,24.635,34.296,24.746,34.643C24.915,35.174,25.07,35.708,25.21,36.247C25.362,36.837,25.496,37.431,25.604,38.03C25.696,38.536,25.77,39.045,25.819,39.557C25.86,39.99,25.884,40.425,25.884,40.86C25.883,41.519,25.827,42.182,25.675,42.825C25.632,43.004,25.582,43.181,25.523,43.356C25.502,43.418,25.48,43.481,25.456,43.543C25.445,43.572,25.433,43.605,25.419,43.633C25.389,43.694,25.35,43.75,25.302,43.799C25.254,43.847,25.198,43.887,25.137,43.917C25.091,43.94,25.043,43.956,24.993,43.967C24.826,44.003,24.647,43.966,24.508,43.867C24.452,43.828,24.403,43.779,24.364,43.724C24.264,43.585,24.226,43.407,24.26,43.24C24.275,43.168,24.305,43.101,24.33,43.033C24.343,42.997,24.355,42.96,24.367,42.924C24.553,42.349,24.628,41.745,24.646,41.143C24.668,40.415,24.608,39.685,24.506,38.964C24.429,38.419,24.326,37.878,24.206,37.341C24.056,36.674,23.877,36.013,23.677,35.359C23.539,34.907,23.39,34.459,23.231,34.014C23.166,34.014,23.101,34.007,23.038,33.993C22.865,33.957,22.705,33.87,22.579,33.745C22.519,33.686,22.486,33.637,22.437,33.572C22.419,33.549,22.402,33.526,22.384,33.503C22.332,33.435,22.332,33.436,22.279,33.368C22.113,33.162,21.943,32.961,21.762,32.767C21.619,32.614,21.47,32.465,21.315,32.323C21.192,32.211,21.066,32.102,20.935,31.999C20.557,31.7,20.142,31.441,19.69,31.269C19.386,31.154,19.064,31.08,18.738,31.077L18.716,31.077C18.792,31.289,18.885,31.495,18.984,31.697C19.106,31.945,19.239,32.188,19.379,32.426L19.395,32.452L19.409,32.476L19.453,32.557L19.489,32.642C19.535,32.77,19.581,32.899,19.626,33.029C19.967,34.005,20.29,34.988,20.577,35.982C20.695,36.388,20.806,36.797,20.906,37.208C20.988,37.547,21.063,37.888,21.12,38.232C21.148,38.401,21.17,38.571,21.187,38.742C21.211,38.989,21.224,39.237,21.237,39.486C21.248,39.728,21.259,39.971,21.272,40.213L21.287,40.477C21.32,41.001,21.365,41.524,21.434,42.045C21.527,42.748,21.659,43.445,21.831,44.133C22.338,46.157,23.184,48.083,24.23,49.884C24.439,50.244,24.656,50.599,24.878,50.951C25.137,51.36,25.405,51.764,25.688,52.157C25.931,52.497,26.185,52.829,26.456,53.148C26.745,53.488,27.054,53.813,27.39,54.107C27.643,54.329,27.911,54.532,28.191,54.719C28.598,54.991,29.026,55.231,29.448,55.479C29.553,55.541,29.657,55.603,29.76,55.666C29.988,55.805,30.213,55.948,30.434,56.097C30.714,56.286,30.988,56.485,31.255,56.694C31.632,56.988,31.995,57.3,32.346,57.625C32.564,57.827,32.777,58.034,32.988,58.244C33.452,58.707,33.902,59.184,34.331,59.679C34.882,60.315,35.402,60.981,35.853,61.691C36.195,62.229,36.501,62.794,36.718,63.394L36.722,63.406C37.289,63.331,37.853,63.23,38.411,63.104C38.95,62.982,39.485,62.836,40.011,62.665C40.97,62.352,41.905,61.953,42.772,61.437C43.021,61.289,43.265,61.131,43.501,60.962C43.739,60.792,43.97,60.611,44.195,60.424C44.493,60.178,44.781,59.921,45.059,59.653C45.697,59.041,46.284,58.374,46.814,57.666C47.24,57.099,47.63,56.504,47.974,55.884L45.552,53.573L45.566,53.584C45.542,53.565,45.519,53.545,45.496,53.525C45.406,53.443,45.322,53.356,45.247,53.261C44.92,52.849,44.751,52.336,44.65,51.826C44.63,51.727,44.613,51.626,44.598,51.526C44.579,51.401,44.563,51.275,44.549,51.149C44.531,50.972,44.516,50.794,44.505,50.616C44.491,50.376,44.481,50.135,44.476,49.895C44.469,49.58,44.467,49.264,44.468,48.949C44.47,48.48,44.478,48.012,44.487,47.543C44.498,46.951,44.511,46.359,44.522,45.766C44.526,45.481,44.531,45.196,44.534,44.911C44.541,44.237,44.54,43.562,44.542,42.888C44.546,42.128,44.552,41.368,44.555,40.608C44.557,39.942,44.558,39.276,44.529,38.61C44.502,37.981,44.45,37.348,44.309,36.732C44.24,36.431,44.149,36.135,44.037,35.847C43.956,35.638,43.862,35.435,43.766,35.232C43.646,34.979,43.523,34.728,43.395,34.479C43.174,34.045,42.943,33.617,42.701,33.195C42.46,32.773,42.208,32.357,41.943,31.949C41.706,31.584,41.458,31.224,41.191,30.88C41.111,30.778,41.029,30.676,40.944,30.577C40.843,30.46,40.739,30.346,40.622,30.244C40.518,30.152,40.405,30.067,40.288,29.993C39.866,29.726,39.376,29.578,38.881,29.538C38.727,29.525,38.572,29.522,38.418,29.533C38.365,29.536,38.312,29.541,38.26,29.548C38.485,29.944,38.732,30.328,38.996,30.7C39.382,31.245,39.806,31.764,40.273,32.241L40.293,32.262C40.312,32.284,40.33,32.307,40.346,32.331C40.383,32.387,40.411,32.449,40.429,32.515C40.449,32.589,40.454,32.667,40.445,32.744C40.436,32.821,40.413,32.895,40.377,32.963C40.349,33.014,40.315,33.061,40.275,33.103C40.234,33.144,40.188,33.18,40.138,33.209C39.994,33.29,39.821,33.311,39.663,33.265C39.598,33.247,39.536,33.217,39.481,33.179C39.457,33.162,39.435,33.144,39.413,33.124C39.372,33.084,39.332,33.043,39.293,33.002C38.769,32.453,38.295,31.86,37.865,31.236C37.474,30.667,37.117,30.073,36.815,29.451L36.803,29.425C36.792,29.398,36.782,29.371,36.774,29.343L36.768,29.317C36.755,29.295,36.741,29.27,36.722,29.237C36.721,29.235,36.723,29.24,36.724,29.242C36.726,29.244,36.727,29.246,36.728,29.248C36.729,29.249,36.729,29.25,36.73,29.251C36.73,29.252,36.731,29.253,36.731,29.252C36.73,29.251,36.729,29.249,36.727,29.248C36.717,29.234,36.706,29.221,36.694,29.207C36.64,29.147,36.581,29.091,36.52,29.037C36.439,28.966,36.353,28.899,36.265,28.835C36.039,28.671,35.798,28.528,35.548,28.405C35.088,28.179,34.594,28.018,34.087,27.948C33.595,27.881,33.093,27.905,32.614,28.035C32.498,28.066,32.384,28.104,32.273,28.147C32.393,28.331,32.513,28.516,32.633,28.701C32.711,28.822,32.788,28.943,32.865,29.065C33.215,29.62,33.552,30.182,33.867,30.757C34.238,31.437,34.579,32.133,34.887,32.844L34.901,32.879C34.913,32.915,34.924,32.951,34.93,32.989C34.944,33.077,34.939,33.167,34.916,33.253C34.899,33.314,34.873,33.372,34.838,33.425C34.726,33.597,34.531,33.704,34.326,33.705C34.263,33.706,34.2,33.697,34.139,33.678C34.006,33.637,33.888,33.55,33.81,33.434C33.775,33.381,33.751,33.323,33.726,33.265C33.677,33.154,33.628,33.043,33.578,32.932C33.297,32.318,32.992,31.716,32.662,31.127C32.327,30.529,31.967,29.945,31.597,29.369C31.406,29.074,31.214,28.781,31.023,28.487C30.998,28.48,30.974,28.472,30.951,28.463C30.883,28.437,30.852,28.418,30.795,28.388C30.756,28.367,30.744,28.362,30.705,28.342C30.661,28.32,30.618,28.3,30.574,28.279C30.389,28.196,30.199,28.124,30.002,28.075C29.864,28.041,29.722,28.018,29.579,28.011C29.414,28.003,29.248,28.018,29.087,28.059C28.908,28.105,28.739,28.182,28.581,28.278C28.409,28.381,28.252,28.506,28.093,28.627C28.294,28.957,28.489,29.292,28.676,29.631C28.895,30.027,29.106,30.429,29.308,30.834C29.465,31.148,29.617,31.464,29.766,31.781C29.931,32.134,30.094,32.488,30.259,32.841C30.336,33.005,30.414,33.169,30.498,33.33C30.533,33.397,30.569,33.464,30.607,33.529C30.637,33.581,30.669,33.632,30.706,33.679L30.71,33.684C30.72,33.695,30.731,33.704,30.742,33.713L30.77,33.741C30.796,33.771,30.821,33.802,30.842,33.836C30.883,33.903,30.912,33.978,30.925,34.056C30.934,34.108,30.936,34.161,30.931,34.214C30.915,34.399,30.813,34.571,30.658,34.674C30.603,34.71,30.542,34.738,30.479,34.755C30.402,34.776,30.322,34.782,30.244,34.772C30.165,34.763,30.089,34.738,30.019,34.7C29.944,34.658,29.879,34.6,29.82,34.538C29.719,34.431,29.637,34.309,29.562,34.184C29.464,34.022,29.379,33.854,29.296,33.684C29.186,33.462,29.082,33.236,28.978,33.011C28.869,32.776,28.76,32.541,28.65,32.306C28.58,32.157,28.509,32.008,28.438,31.86C28.114,31.192,27.775,30.532,27.406,29.888C27.182,29.497,26.947,29.111,26.703,28.732C26.696,28.726,26.689,28.72,26.683,28.714C26.651,28.684,26.621,28.651,26.593,28.617C26.538,28.547,26.498,28.472,26.453,28.396C26.41,28.322,26.366,28.248,26.322,28.174C26.301,28.138,26.279,28.102,26.257,28.066C26.233,28.03,26.208,27.994,26.182,27.958L26.161,27.925C26.143,27.895,26.138,27.888,26.124,27.855C26.12,27.846,26.116,27.836,26.112,27.827zM17.78,33.356L17.811,33.407C17.803,33.395,17.796,33.383,17.789,33.371C17.781,33.358,17.777,33.347,17.78,33.356zM38.213,29.464L38.214,29.466C38.227,29.453,38.239,29.439,38.251,29.425L38.213,29.464Z"/>
        </g>
    </g>
</svg>
