<?xml version="1.0" encoding="UTF-8" standalone="no"?>
<!-- Created with Keyshape -->
<svg xmlns="http://www.w3.org/2000/svg" xmlns:xlink="http://www.w3.org/1999/xlink" fill-rule="evenodd" stroke-miterlimit="1.41" viewBox="0 0 1637 768" clip-rule="evenodd" stroke-linejoin="round">
    <style>
@keyframes a0_t { 0% { transform: translate(-1395.299731px,36.675092px); } 7.1428% { transform: translate(-1303.399707px,-146.424903px); } 11.9047% { transform: translate(-1326.4px,-94.225px); } 16.6666% { transform: translate(-1303.4px,-146.425px); } 21.4285% { transform: translate(-1326.4px,-94.225px); } 88.0952% { transform: translate(-1326.4px,-94.225px); } 100% { transform: translate(-1326.4px,-94.225px); } }
@keyframes a0_o { 0% { opacity: 1; } 88.0952% { opacity: 1; } 100% { opacity: 0; } }
    </style>
    <g>
        <g transform="translate(1412.59,241.15) translate(-92.9658,-83.6049)">
            <g fill="#fff" fill-rule="nonzero" opacity="1" transform="translate(-1395.3,36.6751)" style="animation: a0_t 4.2s linear infinite both, a0_o 4.2s linear infinite both;">
                <path d="M1444.75,0.06C1445.31,0.08,1445.85,0.12,1446.41,0.2C1447.61,0.36,1448.61,0.66,1449.71,1.08C1450.91,1.58,1452.11,2.23,1453.11,3.04C1455.81,5.12,1457.61,8.16,1458.21,11.47C1458.41,12.53,1458.41,13.6,1458.41,14.67C1458.41,15.74,1458.41,16.8,1458.31,17.87C1458.11,21.33,1457.61,24.77,1457.01,28.17C1456.71,30.2,1456.21,32.22,1455.71,34.22C1455.11,36.86,1454.51,39.48,1453.81,42.1C1453.01,45.25,1452.11,48.4,1451.31,51.54L1450.41,55.11C1449.81,57.91,1449.21,60.61,1448.71,63.31C1448.31,65.81,1448.01,68.41,1448.01,70.91L1448.01,71.51C1448.01,72.11,1448.01,72.61,1447.91,73.21C1447.61,74.91,1447.11,76.51,1446.21,77.91C1445.31,79.61,1444.01,81.01,1442.61,82.11C1441.21,83.31,1439.51,84.11,1437.61,84.51C1436.41,84.81,1435.11,85.01,1433.81,84.91C1432.31,84.91,1430.91,84.61,1429.51,84.11C1428.01,83.51,1426.51,82.71,1425.21,81.61C1423.81,80.41,1422.71,78.91,1421.91,77.21C1421.21,75.71,1420.81,74.11,1420.61,72.41C1420.51,71.41,1420.61,70.31,1420.61,69.31C1420.61,67.61,1420.81,65.81,1421.01,64.11C1421.61,59.01,1422.71,53.91,1423.91,48.91C1425.11,43.81,1426.61,38.71,1427.91,33.61L1428.81,30.11C1429.51,27.41,1430.11,24.81,1430.51,22.01C1430.91,19.61,1431.21,17.11,1431.21,14.61L1431.21,14C1431.31,13.5,1431.21,13.35,1431.31,12.85C1431.41,11.75,1431.71,10.65,1432.01,9.62C1432.71,7.87,1433.71,6.26,1434.91,4.9C1436.31,3.4,1438.01,2.2,1439.91,1.43C1440.91,1.01,1442.01,0.73,1443.11,0.58L1444.21,0.48L1445.31,0.48Z" fill="#ffffff"/>
                <path d="M1549.3,15.56C1549.9,15.6,1550.5,15.66,1551.08,15.76C1552.45,16.01,1553.78,16.46,1555.01,17.11C1557.51,18.41,1559.61,20.51,1560.91,22.91C1561.71,24.31,1562.21,25.91,1562.41,27.41C1562.61,28.81,1562.61,30.21,1562.41,31.61C1562.21,33.01,1561.81,34.31,1561.21,35.61C1561.01,36.21,1560.71,36.71,1560.31,37.21L1551.11,51.11C1544.71,60.81,1538.31,70.61,1532.41,80.61C1528.51,87.21,1524.81,93.91,1521.31,100.71L1521.11,101.31C1520.81,101.81,1520.51,102.31,1520.11,102.81C1519.01,104.21,1517.71,105.51,1516.21,106.41C1514.51,107.51,1512.61,108.11,1510.61,108.31C1508.61,108.51,1506.61,108.31,1504.71,107.71C1503.61,107.31,1502.51,106.81,1501.51,106.21C1500.41,105.51,1499.31,104.51,1498.41,103.41C1497.41,102.21,1496.61,100.81,1496.11,99.31C1495.51,97.61,1495.21,95.81,1495.31,94.11C1495.41,92.71,1495.61,91.41,1496.11,90.11C1496.31,89.61,1496.51,89.01,1496.81,88.51L1498.51,85.21C1500.11,82.31,1501.61,79.31,1503.31,76.51C1506.31,71.11,1509.41,65.91,1512.61,60.61C1520.61,47.61,1529.11,35.01,1537.51,22.31L1537.81,21.81C1538.11,21.41,1538.21,21.31,1538.61,20.91C1539.01,20.51,1539.41,20.01,1539.91,19.61C1541.71,18.01,1543.91,16.91,1546.21,16.41C1546.81,16.31,1547.41,16.21,1548.01,16.21C1548.51,16.11,1548.71,16.11,1549.21,16.11L1549.81,16.11Z" fill="#ffffff"/>
                <path d="M1592.92,113.96C1593.5,113.98,1594.07,114.02,1594.64,114.1C1596.06,114.3,1597.44,114.74,1598.74,115.37C1599.9,115.93,1600.98,116.67,1601.94,117.53C1604.5,119.85,1606.14,123.13,1606.44,126.57C1606.56,127.85,1606.49,129.17,1606.24,130.42C1605.94,131.98,1605.38,133.47,1604.58,134.82C1596.44,141.91,1596.44,141.91,1601.85,138.15C1601.42,138.53,1600.97,138.87,1600.5,139.21L1596.44,141.91L1592.04,144.81C1589.66,146.41,1587.27,147.91,1584.99,149.61C1583.79,150.51,1582.69,151.41,1581.59,152.31L1575.39,157.61L1567.79,164.01L1567.39,164.31L1565.99,165.31C1564.59,166.11,1563.09,166.71,1561.59,167.01C1560.19,167.31,1558.69,167.31,1557.29,167.21C1555.99,167.11,1554.69,166.71,1553.49,166.21C1551.79,165.51,1550.19,164.41,1548.89,163.11C1547.49,161.71,1546.39,159.91,1545.69,158.01C1545.09,156.41,1544.89,154.61,1544.89,152.91C1544.89,151.21,1545.29,149.51,1545.99,147.91C1546.49,146.61,1547.29,145.41,1548.29,144.31L1549.49,143.11L1551.59,141.41L1554.59,138.91C1557.49,136.51,1560.39,134.01,1563.29,131.51L1564.69,130.31C1565.99,129.21,1567.39,128.11,1568.79,127.11C1571.29,125.31,1573.79,123.61,1576.39,122.01L1584.59,116.71L1584.99,116.51C1585.69,116.11,1586.49,115.71,1587.29,115.41C1588.19,115.11,1589.19,114.81,1590.19,114.71C1590.59,114.61,1590.99,114.61,1591.49,114.61L1592.39,114.61Z" fill="#ffffff" transform="translate(1575.69,140.615) translate(-1575.69,-140.615)"/>
            </g>
        </g>
        <g>
            <path fill="#f79400" d="M100.3,577.82C67.4,577.24,6.12,459.5,0.43,320.6C-1.87,264.48,6.16,201.94,16.53,161.46C24.2,131.49,28.45,90.83,56.45,77.68C91.73,61.12,199.3,62.06,246.65,62.06C288.35,62.06,525.95,72.53,575.37,72.53C645.77,72.53,910.65,66.88,928.87,98.11C938.37,114.41,946.82,129.71,953.77,159.21C860.43,162.11,744.9,174.91,701.77,223.71C651.73,280.41,646.34,446.21,684.72,554.71L305.02,577.91C273.82,644.51,245.52,686.41,216.94,683.91L191.97,577.91L100.27,577.91Z"/>
            <path fill="#ef4016" d="M953.8,159.14C1003.53,157.49,1046.96,158.67,1069.92,158.67C1116.35,158.67,1329.16,138.34,1451.74,185.14C1543.04,220,1596.2,461.19,1483.26,603.64C1459.34,633.81,1389.88,632.27,1360.26,648.32C1345.53,656.29,1326.31,725.67,1353.44,767.6C1318.59,760.25,1283.36,713.35,1254.07,651.4C1254.07,651.4,810.02,693.53,722.59,620.7C701.39,603.07,696.89,589.55,684.69,554.66L708.89,553.16C708.89,553.16,933.59,550.48,955.49,509.58C987.49,449.86,980.59,270.08,953.59,159.14Z"/>
            <path fill="#2ca3a3" d="M953.8,159.14C980.73,270.07,987.64,449.86,955.64,509.58C933.74,550.48,708.98,553.15,708.98,553.15L684.73,554.65C646.35,446.12,651.73,280.29,701.79,223.65C744.89,174.83,860.39,162.05,953.79,159.15Z"/>
        </g>
        <g fill="#fff" fill-rule="nonzero">
            <path d="M174.88,169.05C183.3,168.8,187.65,173.28,187.92,182.49L188.6,205.29C189.53,236.99,193.95,237.19,222.17,395.49L222.34,401.29C222.68,412.69,218.34,418.49,209.34,418.79C201.17,417.99,197,414.79,196.84,408.99L196.6,400.99C196.18,386.69,194.04,393.69,176.65,306.89C136.62,309.99,116.65,313.29,116.75,316.59L118.1,317.99L118.13,318.69C123.38,368.69,119.85,356.89,121.07,398.29L121.93,427.39C122.25,438.49,117.33,444.19,107.17,444.49C100.47,444.69,96.73,440.59,95.9,432.09L95.1,404.89C93.67,356.39,97.17,367.19,92.05,321.99L89.45,321.99C82.18,322.19,76.58,319.69,72.65,314.49L72.47,308.69C77.24,302.69,82.67,299.49,88.77,299.09C88.22,280.69,88.9,268.89,71.73,189.39C71.55,183.29,76.97,179.69,87.98,178.39C95.24,178.19,101.28,195.59,106.08,230.59C110.32,245.99,106.68,241.39,114.28,291.39L116.01,291.29L174.71,284.79C163.61,222.79,161.01,215.49,160.21,188.29C159.81,175.39,164.71,168.89,174.91,168.59ZM279.66,280.75C295.93,280.28,307.33,292.19,313.86,316.49C307.11,343.99,291.98,358.19,268.44,358.89L266.7,358.89L266.73,359.99C272.03,381.89,284.7,392.49,304.75,391.89C320.15,391.39,332.31,379.99,341.25,357.69L350.75,354.09C357.13,353.89,361.32,357.89,363.31,366.09C363.81,381.09,350.11,395.69,322.31,409.79L301.51,413.69C276.51,414.39,257.41,400.09,244.01,370.59C240.21,358.79,238.21,348.99,237.91,341.29L237.81,336.59C237.11,311.89,248.91,293.59,273.31,281.69L279.81,280.39ZM264.89,327.02L264.89,327.75L274.69,335.82C278.99,335.69,282.99,330.62,286.39,320.57L286.19,314.75C284.49,307.28,282.49,303.58,280.19,303.65L277.59,303.73C273.19,303.86,268.89,311.63,264.69,327.03ZM453.29,283.72L479.49,286.6L479.49,285.5C485.89,285.32,490.89,289.4,494.69,297.8L493.99,320.72L494.39,336.72C495.09,360.22,499.69,377.65,508.09,389.04C505.89,395.16,501.49,398.32,494.79,398.52C485.19,398.8,477.89,389.8,472.99,371.52L471.89,365.72L467.89,365.85C458.09,386.75,443.59,400.87,424.69,408.22L418.19,409.87C392.99,404.79,380.09,389.89,379.39,365.17L379.29,363C378.39,332.24,395.49,307.25,430.69,288.02L452.79,283.72ZM406.09,369.12C408.49,381.19,413.29,387.12,420.59,386.9L421.89,386.86C431.99,386.56,447.29,360.53,467.59,308.76L467.49,307.68L454.69,305.88L453.79,305.9C430.49,306.6,414.49,323.8,405.59,357.5L405.89,369.14ZM536.4,257.2C544.23,256.96,550.42,264.66,554.95,280.3L556.25,280.25C566.98,269.02,578.73,263.22,591.51,262.85C612.61,265.37,623.21,270.52,623.41,278.27C621.01,285.13,616.61,288.65,610.21,288.84L593.51,284.97L589.21,285.1C572.21,288.27,564.51,317.95,566.11,374.16L566.61,391.23C565.11,398.79,561.21,402.67,554.81,402.86C545.51,403.13,540.71,398.66,540.51,389.46L539.31,347.31C538.41,316.31,532.91,289.31,523.01,266.41C525.21,260.51,529.81,257.51,536.71,257.31Z"/>
        </g>
        <g fill="#fff">
            <path d="M747.1,334.9C746.2,335.13,745.32,335.47,744.5,335.92C743.96,336.22,743.44,336.54,742.95,336.92C742.6,337.17,742.27,337.46,741.95,337.75C740.05,339.55,738.75,341.91,737.85,344.35C737.7,344.78,737.55,345.2,737.43,345.63C737.27,346.13,737.13,346.66,736.99,347.18C736.79,347.88,736.59,348.56,736.49,349.26C736.29,350.16,736.19,351.06,735.99,351.98L735.89,352.14L739.09,407.44L739.09,407.54L738.69,411.29L738.59,411.59C738.49,412.19,738.29,412.79,737.99,413.39C737.79,413.69,737.59,414.09,737.39,414.39L736.89,415.09C735.69,416.59,733.99,417.69,732.19,418.59L731.19,418.99C730.79,419.09,730.39,419.29,729.89,419.39C729.09,419.59,728.29,419.89,727.49,420.09L726.89,420.19L726.39,420.29C726.29,420.29,726.09,420.19,725.99,420.19C725.79,420.19,725.59,420.09,725.39,420.09C724.49,419.89,723.69,419.49,722.89,418.99C722.19,418.49,721.59,417.89,721.09,417.29C720.39,416.39,719.79,415.39,719.29,414.39C718.49,412.89,717.99,411.39,717.49,409.79C716.89,407.99,716.49,406.19,716.09,404.29C715.59,401.89,715.19,399.39,714.79,396.89C714.39,394.19,714.09,391.59,713.89,388.89C713.59,385.89,713.39,382.79,713.29,379.79C713.09,376.39,712.99,372.89,712.89,369.49C712.79,362.29,712.79,355.19,712.89,347.99C713.09,338.59,713.49,329.09,713.89,319.69L713.89,319.59C713.99,318.89,714.19,318.19,714.49,317.59L715.09,316.39L715.69,315.59C716.99,313.99,718.79,312.99,720.59,312.19L721.49,311.89C722.19,311.59,722.89,311.39,723.69,311.19C723.89,311.19,724.09,311.09,724.19,311.09C724.39,310.99,724.59,310.99,724.69,310.99L724.79,310.99L725.39,311.19C726.09,311.39,726.79,311.69,727.49,311.99C727.99,312.19,728.49,312.39,729.09,312.69L730.09,313.19L730.79,313.69L731.39,314.09L731.89,314.49C732.79,315.19,733.59,316.09,733.89,317.29C733.99,317.49,733.99,317.79,734.09,317.99L734.29,317.99L748.79,315.99L749.29,315.99C750.09,316.09,750.99,316.19,751.79,316.39C755.39,317.29,758.79,319.19,761.69,321.39L762.89,322.39C763.39,322.79,763.99,323.29,764.49,323.79C765.19,324.39,765.79,324.99,766.39,325.59C767.19,326.39,767.89,327.29,768.69,328.09C769.59,329.09,770.49,330.19,771.29,331.19L771.39,331.19L772.19,330.19C772.49,329.89,772.69,329.59,772.89,329.29C776.19,325.19,779.79,321.29,783.79,317.99C786.59,315.49,789.69,313.29,793.09,311.59C794.99,310.59,796.99,309.79,799.09,309.19L800.49,308.89C800.59,308.89,800.59,308.89,800.69,308.79C800.79,308.69,800.99,308.69,801.09,308.69L801.39,308.69L801.99,308.99L803.39,309.69C804.29,310.19,805.29,310.79,806.19,311.39C806.99,311.99,807.79,312.59,808.59,313.29L810.09,314.69C813.89,318.39,816.49,323.09,818.49,327.99L819.39,330.49C819.69,331.49,820.09,332.59,820.39,333.59C820.79,334.99,821.09,336.39,821.49,337.79C821.89,339.69,822.29,341.59,822.59,343.59C822.99,345.99,823.29,348.39,823.59,350.79C823.89,353.99,824.09,357.29,824.29,360.49C824.39,363.29,824.39,366.09,824.39,368.79L824.39,372.89L824.52,375.09C824.82,379.39,825.22,383.69,825.72,387.89C826.22,391.39,826.82,394.79,827.62,398.19C828.22,400.79,828.94,403.29,829.85,405.69C830.55,407.49,831.25,409.29,832.25,410.99L832.95,412.19L833.05,412.39L833.05,414.19C832.95,414.89,832.77,415.49,832.55,416.09C832.37,416.49,832.18,416.79,831.97,417.09L831.47,417.69C830.37,419.09,828.77,420.09,827.17,420.79L826.37,421.09C825.97,421.29,825.57,421.39,825.17,421.49L823.77,421.89L821.97,422.23L821.87,422.23C821.57,422.23,821.37,422.23,821.17,422.2C820.77,422.18,820.37,422.1,819.97,422L818.77,421.6C816.67,420.7,815.01,419,813.7,417.2L813.2,416.4C812.8,415.8,812.5,415.2,812.1,414.6C811.7,413.84,811.4,413.1,811.1,412.4C810.1,410.2,809.3,407.9,808.6,405.6C807.8,402.9,807.2,400.1,806.64,397.34C806.04,394.04,805.54,390.74,805.14,387.44C804.64,383.44,804.24,379.44,803.94,375.44C803.54,370.94,803.34,366.34,803.14,361.74C802.94,355.84,802.84,349.94,802.77,343.94L798.47,331.44L795.37,331.24L794.77,331.9C793.37,333.4,792.07,335.1,790.97,336.8C789.27,339.3,787.87,342,786.67,344.8C785.49,347.6,784.67,350.5,784.07,353.5C783.67,355.4,783.47,357.2,783.27,359.1L783.17,359.9C782.77,362.78,782.47,365.6,782.37,368.48C782.17,371.48,782.07,374.48,781.97,377.48C781.87,384.98,781.97,392.38,782.27,399.88L782.27,400L782.1,400.3L781.8,400.72C781.6,401.12,781.3,401.52,781,401.92C779.6,403.92,777.7,405.72,775.5,406.82C775.1,407.02,774.7,407.17,774.3,407.32C773.8,407.52,773.3,407.62,772.8,407.72C771.9,407.82,771.1,407.92,770.2,407.82L770.1,407.82C769.5,407.72,769,407.62,768.4,407.42L767.5,406.92L766.8,406.52C765.3,405.52,764.15,404.02,763.3,402.42C763.16,402.12,763,401.82,762.9,401.52C762.7,401.12,762.5,400.72,762.4,400.32C762.15,399.75,762,399.22,761.8,398.72C761.55,397.92,761.34,397.12,761.14,396.34L760.54,393.44L759.94,389.37C759.74,387.77,759.64,386.07,759.54,384.37C759.44,382.17,759.34,379.97,759.34,377.82C759.24,375.22,759.32,372.54,759.34,369.92L758.94,367.22C758.04,362.32,757.14,357.35,756.04,352.52C755.54,350.52,755.04,348.52,754.44,346.52C753.94,344.72,753.34,342.92,752.74,341.22C752.24,340.05,751.84,338.92,751.24,337.82C750.84,337.02,750.34,336.22,749.74,335.52L749.34,335.06L749.04,334.76C748.64,334.36,748.04,333.96,747.44,333.86L746,333.86ZM877.13,377.4L877.13,377.45C877.33,378.45,877.56,379.47,877.83,380.48C878.01,381.21,878.23,381.94,878.43,382.68L879.01,384.41C880.41,388.31,882.31,392.11,885.11,395.11C886.21,396.31,887.41,397.41,888.61,398.31C889.91,399.31,891.31,400.11,892.81,400.71C895.51,401.91,898.31,402.51,901.21,402.71C901.91,402.81,902.71,402.81,903.41,402.81L904.81,402.81C905.51,402.81,906.21,402.81,906.91,402.71C908.41,402.51,909.81,402.21,911.21,401.71C912.61,401.21,913.91,400.61,915.11,399.91C918.31,398.01,921.01,395.31,923.31,392.31C924.71,390.51,926.01,388.51,927.21,386.51C928.41,384.51,929.51,382.41,930.41,380.21C930.91,379.31,931.21,378.41,931.61,377.51L931.71,377.41L931.81,377.31C931.91,377.21,932.01,377.21,932.11,377.21L939.21,374.71L940.31,374.71C941.01,374.81,941.61,374.91,942.21,375.11C942.81,375.31,943.31,375.51,943.91,375.81L945.01,376.51L945.61,377.11C947.11,378.61,948.11,380.51,948.71,382.41C948.91,382.81,949.01,383.21,949.11,383.51L949.41,384.91L949.41,385.11L949.51,385.41L949.51,386.01C949.51,387.21,949.41,388.31,949.11,389.41C949.01,390.11,948.81,390.81,948.61,391.51C947.61,395.01,945.71,398.21,943.41,401.01C943.01,401.61,942.51,402.11,942.01,402.61L940.51,404.21L938.21,406.21C937.21,407.11,936.11,408.01,935.01,408.81C933.61,409.91,932.21,410.91,930.71,411.91C928.91,413.21,927.01,414.31,925.01,415.51C922.61,416.91,920.11,418.21,917.61,419.51L917.51,419.61L917.41,419.61L901.81,422.21L900.81,422.21C899.61,422.21,898.41,422.11,897.21,422.01C895.01,421.81,892.91,421.41,890.81,420.81C888.61,420.21,886.61,419.41,884.61,418.41C883.31,417.81,882.01,417.11,880.81,416.31C879.91,415.71,879.01,415.11,878.21,414.41C873.41,410.71,869.51,406.01,866.21,401.01L864.91,398.81C864.31,397.81,863.81,396.81,863.31,395.81C862.61,394.51,862.01,393.21,861.31,391.91C860.61,390.31,859.81,388.61,859.21,386.91L859.21,386.81C858.01,382.71,857.01,378.61,856.31,374.41C855.81,371.51,855.41,368.61,855.31,365.61C855.31,365.01,855.21,364.41,855.21,363.81L855.21,359C855.31,357.36,855.31,355.7,855.51,354.08C855.71,351.28,856.21,348.48,857.01,345.78C857.81,342.88,858.91,339.98,860.31,337.28C861.71,334.78,863.31,332.38,865.11,330.18C867.01,327.98,869.11,325.98,871.31,324.08C873.71,322.18,876.31,320.38,879.01,318.88C880.31,318.18,881.71,317.48,883.01,316.78L883.21,316.68L883.41,316.68L888.31,315.88L888.61,315.88C889.31,315.88,889.91,315.91,890.61,315.98C891.81,316.08,892.91,316.28,894.01,316.61C895.11,316.91,896.21,317.31,897.21,317.81C898.01,318.21,898.71,318.61,899.41,319.01C899.91,319.31,900.41,319.71,900.81,320.01C903.71,322.31,906.01,325.21,907.81,328.41L908.71,329.91L909.81,332.21C910.31,333.31,910.71,334.31,911.11,335.41C911.61,336.81,912.11,338.31,912.51,339.71C913.11,341.61,913.51,343.51,914.01,345.31L914.01,345.71L913.71,346.91C913.41,348.21,913.01,349.51,912.51,350.81C912.21,351.81,911.81,352.81,911.51,353.81C911.21,354.61,910.81,355.41,910.51,356.21C908.51,360.81,905.81,365.31,902.31,368.91C901.81,369.51,901.31,369.91,900.81,370.41C900.01,371.11,899.21,371.81,898.41,372.41C897.21,373.31,895.91,374.11,894.61,374.81C892.71,375.81,890.71,376.61,888.61,377.21C886.51,377.81,884.41,378.11,882.31,378.31C881.21,378.41,880.01,378.51,878.81,378.51L878.01,378.51ZM882.46,333.1L882.31,333.12L882.21,333.12L882.11,333.15C881.71,333.25,881.41,333.45,881.11,333.69C880.61,333.99,880.31,334.49,879.91,334.99C879.31,335.79,878.81,336.79,878.41,337.69C877.81,338.89,877.31,340.19,876.81,341.49C876.51,342.29,876.21,343.19,875.91,343.99C875.51,345.09,875.21,346.19,874.81,347.29L873.61,351.39L873.61,351.49L882.01,358.79L882.21,358.79C882.61,358.69,882.91,358.59,883.21,358.39L884.21,357.79C884.71,357.49,885.11,357.09,885.51,356.69C886.01,356.29,886.51,355.79,886.91,355.39C887.71,354.59,888.41,353.79,889.11,352.99C889.81,352.09,890.51,351.19,891.11,350.29C892.51,348.09,893.81,345.89,894.71,343.49L894.71,339.09L894.61,338.29C894.41,337.09,894.11,335.99,893.81,334.89C893.61,334.09,893.31,333.29,892.91,332.49L892.71,331.99L892.51,331.69L892.41,331.39L892.31,331.19C892.11,330.99,891.81,330.79,891.51,330.79L883.11,332.59Z"/>
        </g>
        <g fill="#fff">
            <path d="M1077.66,339.52C1079.51,339.52,1081.36,339.54,1083.22,339.58C1084.78,339.61,1086.35,339.65,1087.92,339.72C1096.12,340.06,1104.34,340.94,1112.26,343.18C1113.31,343.48,1114.36,343.8,1115.39,344.14C1116.79,344.64,1118.29,345.19,1119.79,345.8C1122.09,346.75,1124.29,347.82,1126.39,349.04C1130.19,351.21,1133.79,353.8,1137.09,356.74C1141.59,360.76,1145.49,365.4,1148.99,370.36C1152.59,375.59,1155.79,381.18,1158.49,386.94C1159.19,388.56,1159.99,390.2,1160.69,391.84L1160.69,391.91L1162.19,397.81C1162.79,400.31,1163.29,402.91,1163.79,405.41C1164.19,408.01,1164.59,410.51,1164.89,413.11C1165.19,415.41,1165.39,417.81,1165.69,420.11L1165.69,420.51C1165.69,422.71,1165.59,424.81,1165.39,426.91C1164.99,431.21,1164.29,435.41,1163.19,439.51C1161.99,443.61,1160.49,447.61,1158.49,451.31C1157.09,453.91,1155.49,456.41,1153.69,458.71C1152.39,460.41,1150.99,462.01,1149.59,463.51C1148.39,464.71,1147.29,465.81,1146.09,466.91C1139.69,472.61,1132.09,477.01,1124.29,480.31L1120.69,481.81C1118.99,482.51,1117.39,483.01,1115.69,483.61L1115.59,483.61C1112.69,484.21,1109.79,484.71,1106.89,485.11C1103.39,485.71,1099.79,486.21,1096.29,486.61C1093.19,487.01,1089.99,487.21,1086.89,487.31C1085.69,487.41,1084.39,487.41,1083.19,487.31C1081.59,487.31,1080.09,487.21,1078.49,487.11C1070.89,486.61,1063.19,485.11,1056.19,481.91C1055.09,481.41,1053.99,480.91,1052.99,480.41C1050.49,479.11,1048.09,477.61,1045.89,475.81C1043.09,473.61,1040.49,471.01,1038.19,468.11C1036.09,465.51,1034.29,462.71,1032.79,459.71C1031.99,458.11,1031.19,456.51,1030.49,454.81L1030.39,454.61L1029.99,453.81L1029.59,453.01C1028.79,451.51,1028.19,449.91,1027.59,448.31C1026.49,445.51,1025.69,442.61,1025.09,439.71C1024.39,436.61,1024.09,433.51,1023.89,430.41C1023.79,428.91,1023.69,427.41,1023.69,425.91L1023.69,421.91C1023.69,420.61,1023.69,419.21,1023.79,417.91C1023.89,415.01,1024.09,412.01,1024.59,409.11C1024.89,407.11,1025.19,405.11,1025.69,403.11C1026.09,401.21,1026.59,399.41,1027.29,397.51C1028.29,394.51,1029.49,391.61,1030.79,388.81C1032.59,385.01,1034.69,381.31,1036.89,377.71C1038.49,375.11,1040.09,372.61,1041.69,370.01L1046.39,362.71L1048.89,358.71C1050.59,356.11,1052.29,353.41,1053.89,350.71L1054.29,350.01L1054.29,348.01L1053.09,347.61C1053.09,347.61,1052.99,347.61,1052.99,347.51C1052.79,347.41,1052.79,347.21,1052.79,347.01C1052.79,346.91,1052.89,346.81,1052.89,346.71L1052.89,346.61C1052.99,346.31,1053.19,346.11,1053.39,345.81C1054.49,344.51,1055.89,343.51,1057.29,342.81C1058.29,342.31,1059.29,341.91,1060.39,341.61C1061.69,341.21,1063.09,340.81,1064.49,340.61C1065.99,340.31,1067.59,340.11,1069.09,340.01C1071.09,339.81,1073.19,339.71,1075.19,339.71L1076.59,339.71ZM1087.02,357.96C1085.39,357.98,1083.75,358.14,1082.2,358.64C1081.46,358.88,1080.75,359.22,1080.06,359.59C1078.98,360.09,1077.96,360.79,1076.96,361.49C1075.44,362.49,1074.01,363.69,1072.64,364.99C1071.01,366.39,1069.47,367.99,1068.02,369.69C1066.39,371.49,1064.88,373.49,1063.45,375.49C1061.55,378.19,1059.82,380.99,1058.25,383.89C1054.01,391.79,1051.05,400.39,1049.6,409.29C1049.16,411.89,1048.87,414.59,1048.7,417.29C1048.64,418.49,1048.6,419.79,1048.58,420.99L1048.58,423.49C1048.58,425.39,1048.62,427.29,1048.72,429.09C1048.79,430.49,1048.9,431.99,1049.04,433.39C1049.14,434.49,1049.28,435.49,1049.44,436.59C1049.56,437.39,1049.7,438.29,1049.86,439.09C1050.78,443.89,1052.31,448.69,1054.96,452.79C1055.41,453.49,1055.88,454.19,1056.38,454.79C1057.1,455.69,1057.88,456.59,1058.7,457.39C1060.28,458.99,1062.04,460.29,1063.93,461.49C1066.78,463.29,1069.88,464.59,1073.06,465.59L1076.19,466.49L1085.69,467.79L1092.09,467.79C1093.89,467.79,1095.69,467.69,1097.59,467.59L1101.39,467.29L1104.09,466.99C1109.09,466.29,1113.99,465.19,1118.59,463.09L1120.59,462.09C1121.59,461.49,1122.49,460.99,1123.49,460.29C1125.09,459.19,1126.49,457.99,1127.89,456.69C1130.09,454.59,1131.99,452.19,1133.69,449.59C1134.49,448.39,1135.19,447.09,1135.79,445.79C1135.99,445.39,1136.19,444.89,1136.49,444.49L1136.79,443.79L1136.99,443.29L1137.29,442.49C1137.69,441.59,1137.99,440.69,1138.39,439.79C1139.39,436.89,1139.99,433.99,1140.29,430.99C1140.39,429.49,1140.49,427.99,1140.49,426.39L1140.49,415C1140.49,412.4,1140.49,409.8,1140.29,407.16C1140.19,405.56,1140.09,403.99,1139.89,402.46C1139.59,400.16,1139.09,397.76,1138.49,395.5C1137.99,394,1137.49,392.6,1136.79,391.23C1136.09,389.73,1135.19,388.33,1134.19,386.97C1132.39,384.57,1130.29,382.47,1127.99,380.47C1125.89,378.67,1123.69,376.97,1121.39,375.27C1119.49,373.87,1117.59,372.47,1115.59,371.07L1109.49,366.67L1106.89,364.77L1101.19,360.57L1100.49,360.27C1098.39,359.37,1096.19,358.67,1093.89,358.17C1091.69,357.67,1089.39,357.37,1087.19,357.27L1086.49,357.27ZM1209.57,380.93C1210.32,380.93,1211.07,381,1211.81,381.13C1213.01,381.33,1214.11,381.71,1215.11,382.29C1215.61,382.49,1216.01,382.79,1216.41,383.09C1216.71,383.29,1217.01,383.59,1217.31,383.79C1218.91,385.39,1219.91,387.39,1220.51,389.49C1220.71,390.09,1220.91,390.69,1221.01,391.19L1221.11,391.69L1221.21,392.09L1221.21,396.79C1221.11,397.49,1221.11,398.19,1221.01,398.89C1220.61,402.99,1220.21,407.19,1220.01,411.39C1219.91,414.49,1219.81,417.59,1219.81,420.79C1219.81,423.29,1219.91,425.89,1220.01,428.49C1220.21,430.39,1220.31,432.39,1220.61,434.29C1220.81,435.79,1221.01,437.39,1221.31,438.89C1221.51,439.99,1221.81,441.09,1222.11,442.19C1222.31,442.99,1222.61,443.89,1222.81,444.69L1223.41,446.49L1224.01,447.99C1225.31,450.99,1227.01,453.89,1229.31,456.19L1230.21,457.09C1230.71,457.49,1231.21,457.89,1231.71,458.19C1232.51,458.69,1233.31,459.19,1234.21,459.59C1235.51,460.19,1236.91,460.69,1238.41,460.99C1240.11,461.29,1241.71,461.39,1243.41,461.39C1244.21,461.39,1244.91,461.29,1245.61,461.29L1245.81,461.29L1249.31,459.49C1250.21,458.99,1251.11,458.39,1252.01,457.89C1252.71,457.49,1253.31,456.99,1254.01,456.59C1257.61,453.99,1261.01,450.99,1263.51,447.39C1263.91,446.89,1264.21,446.29,1264.51,445.79C1265.01,444.99,1265.41,444.29,1265.81,443.49C1266.41,442.29,1266.81,441.09,1267.21,439.89C1267.61,438.59,1267.81,437.39,1268.01,436.09C1268.11,435.29,1268.21,434.49,1268.21,433.69L1268.21,425.69L1263.51,399.49L1263.51,396L1263.61,394.37L1263.71,393.04C1264.11,390.58,1264.81,388.14,1266.11,386.04C1266.31,385.76,1266.51,385.48,1266.81,385.24C1267.21,384.7,1267.71,384.24,1268.21,383.78L1269.41,382.88C1269.71,382.68,1270.01,382.58,1270.31,382.38C1272.31,381.38,1274.51,380.98,1276.61,380.88C1277.81,380.88,1279.01,380.95,1280.21,381.18C1281.11,381.38,1282.11,381.68,1282.91,382.08C1283.81,382.5,1284.51,383.03,1285.21,383.68C1285.51,383.9,1285.81,384.18,1286.01,384.42C1287.51,386.02,1288.51,388.05,1289.21,390.14C1289.71,391.54,1290.01,392.94,1290.21,394.34C1290.51,395.98,1290.61,397.64,1290.71,399.34L1290.71,404.44C1290.81,406.74,1290.81,409,1290.91,411.28C1291.11,417.43,1291.51,423.55,1292.01,429.68C1292.81,438.58,1293.81,447.51,1295.01,456.38L1295.11,457.08L1295.61,457.26L1296.41,457.56L1298.91,458.46L1301.01,459.36L1302.41,460.16C1302.81,460.36,1303.11,460.66,1303.51,460.86L1304.21,461.42L1304.81,461.88C1306.01,462.83,1307.01,464.01,1307.51,465.44L1307.71,466.1C1307.81,466.47,1307.81,466.86,1307.81,467.26L1307.81,468.58C1307.81,469.28,1307.71,469.88,1307.61,470.55C1307.51,470.95,1307.41,471.35,1307.21,471.69L1306.81,472.39C1305.71,473.89,1304.11,474.99,1302.41,475.79L1301.51,476.09C1301.11,476.19,1300.71,476.39,1300.31,476.49C1299.81,476.69,1299.31,476.79,1298.81,476.89C1298.11,477.09,1297.41,477.29,1296.61,477.39C1295.71,477.59,1294.91,477.69,1294.01,477.79L1293.91,477.79C1292.91,477.79,1292.01,477.69,1291.11,477.49C1290.61,477.39,1290.01,477.19,1289.51,476.99C1289.11,476.89,1288.71,476.69,1288.31,476.49C1285.81,475.29,1283.71,473.29,1281.91,471.09C1281.61,470.69,1281.31,470.29,1281.11,469.89L1280.01,468.29C1279.61,467.59,1279.21,466.89,1278.81,466.09L1278.71,465.89L1277.91,466.59L1277.11,467.29C1276.11,468.19,1275.11,469.09,1274.01,469.99C1273.21,470.69,1272.31,471.29,1271.41,471.99L1269.41,473.49C1264.81,476.59,1259.71,479.19,1254.31,480.49L1251.51,481.09C1250.41,481.29,1249.21,481.39,1248.01,481.39L1246.41,481.39C1246.01,481.39,1245.51,481.29,1245.11,481.29L1240.61,480.99C1239.31,480.89,1238.01,480.69,1236.81,480.59C1235.91,480.49,1235.01,480.39,1234.11,480.19C1227.81,479.09,1221.71,477.19,1216.21,473.79C1215.41,473.29,1214.51,472.69,1213.71,472.09C1212.51,471.19,1211.31,470.19,1210.21,469.19C1208.61,467.69,1207.11,466.09,1205.81,464.39C1204.51,462.69,1203.31,460.79,1202.31,458.79C1201.81,457.69,1201.31,456.69,1200.91,455.59L1200.81,455.39L1200.71,455.29L1200.51,453.59C1200.11,449.79,1199.61,445.99,1199.31,442.19C1198.61,434.29,1198.01,426.39,1197.71,418.39C1197.41,411.09,1197.31,403.69,1197.31,396.39L1197.31,390.29C1197.31,389.89,1197.31,389.49,1197.41,389.19C1197.51,388.39,1197.61,387.59,1197.91,386.79C1198.11,386.09,1198.41,385.49,1198.81,384.89L1199.71,383.69C1199.91,383.39,1200.21,383.19,1200.51,382.89C1202.11,381.59,1204.11,380.89,1206.21,380.49L1207.21,380.29C1207.61,380.19,1208.01,380.19,1208.51,380.19C1209.01,380.09,1209.61,380.09,1210.21,380.09L1210.59,380.09ZM1393.02,357.9C1395,358.12,1396.98,358.48,1398.85,359.2C1400.08,359.67,1401.25,360.3,1402.25,361.2C1402.95,361.83,1403.52,362.6,1403.92,363.46C1404.32,364.34,1404.54,365.29,1404.59,366.26C1404.59,366.86,1404.59,367.46,1404.39,368.06C1404.29,368.68,1404.09,369.26,1403.79,369.83C1403.19,371.09,1402.19,372.11,1400.99,372.91C1399.99,373.61,1398.89,374.11,1397.89,374.61C1396.39,375.21,1394.79,375.61,1393.29,375.91C1391.29,376.41,1389.19,376.61,1387.19,376.81C1384.49,377.11,1381.69,377.11,1378.99,377.11L1369.09,379.61L1372.59,475.81L1372.59,475.91C1372.39,477.01,1372.09,478.21,1371.69,479.21C1371.39,479.91,1370.99,480.61,1370.59,481.31C1370.09,482.01,1369.59,482.71,1368.99,483.21C1368.59,483.51,1368.29,483.81,1367.89,484.11L1367.09,484.61C1365.09,485.71,1362.79,486.21,1360.59,486.21C1360.19,486.31,1359.79,486.31,1359.29,486.21C1357.99,486.21,1356.69,486.11,1355.39,485.81C1354.59,485.71,1353.79,485.41,1352.99,485.11C1352.19,484.71,1351.39,484.31,1350.69,483.71C1350.29,483.41,1349.89,483.01,1349.49,482.61C1349.19,482.31,1348.99,482.01,1348.69,481.61C1347.29,479.71,1346.69,477.31,1346.49,475.01C1346.39,474.61,1346.39,474.21,1346.39,473.81L1346.29,472.41L1346.29,449.61L1345.49,385.41L1344.09,382.91L1326.89,383.81L1326.79,383.81C1324.79,383.51,1322.89,383.11,1320.99,382.31C1319.79,381.81,1318.59,381.11,1317.59,380.21C1316.79,379.51,1316.19,378.71,1315.79,377.71C1315.39,376.91,1315.19,376.01,1315.09,375.01C1314.99,374.61,1314.99,374.21,1315.09,373.81C1315.19,373.21,1315.39,372.51,1315.59,371.91C1316.19,370.71,1317.19,369.81,1318.39,369.11C1319.49,368.51,1320.59,367.91,1321.79,367.51C1323.39,367.01,1325.09,366.61,1326.69,366.31C1328.89,365.91,1331.09,365.61,1333.29,365.51C1336.09,365.31,1338.89,365.21,1341.69,365.21L1342.49,365.21L1342.49,360C1342.49,355.8,1342.49,351.53,1342.59,347.3C1342.59,342.04,1342.69,336.8,1342.79,331.5L1343.49,295.7L1343.79,276.9L1343.89,271.6L1343.99,265.8L1343.99,265.4C1344.09,264.73,1344.19,264.1,1344.39,263.5C1344.59,263.1,1344.69,262.75,1344.89,262.4L1345.39,261.8C1346.39,260.43,1347.89,259.53,1349.39,258.9L1350.19,258.6L1351.19,258.3L1352.59,258L1354.29,257.7C1354.89,257.6,1355.49,257.6,1356.09,257.5L1356.69,257.5L1357.09,257.45L1357.39,257.45C1358.19,257.45,1359.09,257.68,1359.79,258.05C1361.19,258.85,1362.29,260.15,1363.19,261.55C1363.89,262.71,1364.39,263.95,1364.89,265.21C1365.39,266.81,1365.89,268.41,1366.29,270.01C1366.79,272.31,1367.19,274.61,1367.49,276.91C1367.79,279.51,1368.09,282.11,1368.29,284.71C1368.49,287.71,1368.69,290.81,1368.69,293.81C1368.79,297.01,1368.79,300.21,1368.79,303.51C1368.79,306.01,1368.79,308.41,1368.69,310.91L1368.39,320.01C1368.29,326.01,1368.09,332.01,1367.89,338.01C1367.79,341.51,1367.59,345.11,1367.49,348.61L1367.39,351.21L1367.39,354.81L1367.29,359.81L1367.29,361.31L1367.59,361.31L1391.29,358.71L1391.39,358.71L1391.79,358.81ZM1447.84,460.52C1448.74,460.54,1449.61,460.64,1450.46,460.9C1451.01,461.06,1451.56,461.3,1452.06,461.57C1452.39,461.77,1452.72,461.99,1453.03,462.24C1453.25,462.42,1453.46,462.61,1453.67,462.81C1454.92,464.11,1455.71,465.81,1456.21,467.51L1456.51,468.31C1456.71,469.01,1456.81,469.61,1456.91,470.21L1457.01,470.81C1457.01,471.01,1457.11,471.11,1457.11,471.21L1457.11,471.61C1457.11,471.91,1457.01,472.21,1456.91,472.51C1456.71,473.01,1456.41,473.51,1456.11,473.91C1455.61,474.51,1455.01,475.01,1454.41,475.51L1453.51,476.11L1452.31,476.81C1451.91,477.11,1451.41,477.31,1450.91,477.51C1450.01,478.01,1449.01,478.41,1447.91,478.71L1447.31,478.91C1447.31,478.91,1447.01,479.11,1446.91,479.11L1446.81,479.11L1445.91,478.91C1444.71,478.71,1443.51,478.41,1442.31,478.01C1441.51,477.71,1440.61,477.41,1439.81,477.01C1438.61,476.41,1437.41,475.71,1436.41,474.81C1435.71,474.11,1435.11,473.31,1434.71,472.31C1434.41,471.41,1434.21,470.41,1434.31,469.51C1434.31,469.01,1434.41,468.41,1434.61,467.91C1434.71,467.41,1435.01,466.81,1435.21,466.31C1435.61,465.81,1436.01,465.21,1436.41,464.81C1436.91,464.41,1437.41,464.01,1438.01,463.61C1439.21,462.91,1440.51,462.41,1441.91,462.01C1444.01,461.51,1446.11,461.21,1448.21,461.11L1448.41,461.11ZM1445.47,254.7C1446.13,254.72,1446.79,254.8,1447.43,254.96C1447.81,255.06,1448.18,255.19,1448.55,255.34C1448.85,255.46,1449.12,255.59,1449.39,255.74C1451.09,256.71,1452.49,258.24,1453.59,259.88C1453.79,260.18,1453.99,260.46,1454.09,260.76C1454.29,261.18,1454.59,261.6,1454.79,262.04C1455.09,262.56,1455.29,263.08,1455.49,263.62C1455.79,264.32,1456.09,265.04,1456.29,265.76L1457.19,268.58C1457.59,269.78,1457.89,271.01,1458.19,272.23C1458.49,273.87,1458.89,275.53,1459.19,277.18L1460.09,283.38C1460.39,286.2,1460.69,289.02,1460.89,291.85C1461.19,295.59,1461.39,299.35,1461.49,303.1C1461.59,308,1461.69,312.9,1461.69,317.8L1455.69,394.7L1457.59,424.67L1457.59,424.9C1457.59,425.42,1457.49,425.93,1457.29,426.43C1457.19,426.73,1457.09,427.01,1456.89,427.28L1456.59,427.81C1455.79,429.11,1454.49,429.91,1453.19,430.61L1452.49,431.01C1452.19,431.21,1451.89,431.31,1451.49,431.41C1449.89,432.01,1448.19,432.31,1446.49,432.61C1445.79,432.71,1445.19,432.81,1444.49,432.81L1443.89,432.91L1443.69,432.91L1443.39,433.01L1443.09,433.01C1442.39,433.01,1441.79,432.91,1441.09,432.71C1440.49,432.51,1439.79,432.31,1439.29,431.91C1438.29,431.41,1437.49,430.71,1436.79,429.81C1435.59,428.51,1434.69,426.91,1434.09,425.31C1433.59,424.31,1433.29,423.21,1432.89,422.21C1432.49,421.01,1432.19,419.81,1431.89,418.51C1431.29,415.41,1430.89,412.31,1430.59,409.11C1430.19,404.81,1430.09,400.51,1430.09,396.31L1430.09,396.21L1436.79,326.31L1436.79,312C1436.79,308.95,1436.69,305.9,1436.49,302.84C1436.19,297.54,1435.69,292.34,1434.89,287.14C1434.09,281.74,1433.09,276.44,1431.89,271.14C1431.29,268.64,1430.69,266.24,1429.99,263.84L1429.99,263.74C1429.99,263.24,1430.09,262.74,1430.19,262.24L1430.49,261.34L1430.79,260.74C1431.59,259.39,1432.89,258.44,1434.19,257.74L1434.99,257.34C1435.29,257.21,1435.59,257.04,1435.89,256.94C1436.29,256.78,1436.79,256.62,1437.19,256.48C1437.79,256.28,1438.39,256.08,1438.99,255.98C1439.79,255.78,1440.49,255.58,1441.19,255.48C1442.19,255.28,1443.09,255.18,1444.09,255.01L1444.49,255.01Z"/>
        </g>
    </g>
</svg>
