<?xml version="1.0" encoding="UTF-8" standalone="no"?>
<!-- Created with Keyshape -->
<svg xmlns="http://www.w3.org/2000/svg" xmlns:xlink="http://www.w3.org/1999/xlink" width="1607" height="724" fill-rule="evenodd" clip-rule="evenodd" stroke-linejoin="round" stroke-miterlimit="1.41">
    <style>
@keyframes a0_t { 0% { transform: translate(-1420.565554px,-0.060001px); animation-timing-function: cubic-bezier(1,0,1,1); } 11.9047% { transform: translate(-1294.300112px,-199.504807px); } 16.6666% { transform: translate(-1319.620108px,-157.544999px); } 21.4285% { transform: translate(-1294.300154px,-199.504801px); } 26.1904% { transform: translate(-1319.620108px,-157.544999px); } 88.0952% { transform: translate(-1319.620108px,-157.544999px); } 100% { transform: translate(-1319.620108px,-157.544999px); } }
@keyframes a0_o { 0% { opacity: 1; } 88.0952% { opacity: 1; } 100% { opacity: 0; } }
    </style>
    <g>
        <g transform="translate(1412.59,241.15) translate(-92.9658,-83.6049)">
            <g fill="#fff" fill-rule="nonzero" opacity="1" transform="translate(-1420.57,-0.0600006)" style="animation: a0_t 4.2s linear infinite both, a0_o 4.2s linear infinite both;">
                <path d="M1444.75,0.06C1445.31,0.08,1445.85,0.12,1446.41,0.2C1447.61,0.36,1448.61,0.66,1449.71,1.08C1450.91,1.58,1452.11,2.23,1453.11,3.04C1455.81,5.12,1457.61,8.16,1458.21,11.47C1458.41,12.53,1458.41,13.6,1458.41,14.67C1458.41,15.74,1458.41,16.8,1458.31,17.87C1458.11,21.33,1457.61,24.77,1457.01,28.17C1456.71,30.2,1456.21,32.22,1455.71,34.22C1455.11,36.86,1454.51,39.48,1453.81,42.1C1453.01,45.25,1452.11,48.4,1451.31,51.54L1450.41,55.11C1449.81,57.91,1449.21,60.61,1448.71,63.31C1448.31,65.81,1448.01,68.41,1448.01,70.91L1448.01,71.51C1448.01,72.11,1448.01,72.61,1447.91,73.21C1447.61,74.91,1447.11,76.51,1446.21,77.91C1445.31,79.61,1444.01,81.01,1442.61,82.11C1441.21,83.31,1439.51,84.11,1437.61,84.51C1436.41,84.81,1435.11,85.01,1433.81,84.91C1432.31,84.91,1430.91,84.61,1429.51,84.11C1428.01,83.51,1426.51,82.71,1425.21,81.61C1423.81,80.41,1422.71,78.91,1421.91,77.21C1421.21,75.71,1420.81,74.11,1420.61,72.41C1420.51,71.41,1420.61,70.31,1420.61,69.31C1420.61,67.61,1420.81,65.81,1421.01,64.11C1421.61,59.01,1422.71,53.91,1423.91,48.91C1425.11,43.81,1426.61,38.71,1427.91,33.61L1428.81,30.11C1429.51,27.41,1430.11,24.81,1430.51,22.01C1430.91,19.61,1431.21,17.11,1431.21,14.61L1431.21,14C1431.31,13.5,1431.21,13.35,1431.31,12.85C1431.41,11.75,1431.71,10.65,1432.01,9.62C1432.71,7.87,1433.71,6.26,1434.91,4.9C1436.31,3.4,1438.01,2.2,1439.91,1.43C1440.91,1.01,1442.01,0.73,1443.11,0.58L1444.21,0.48L1445.31,0.48Z" fill="#ffffff"/>
                <path d="M1549.3,15.56C1549.9,15.6,1550.5,15.66,1551.08,15.76C1552.45,16.01,1553.78,16.46,1555.01,17.11C1557.51,18.41,1559.61,20.51,1560.91,22.91C1561.71,24.31,1562.21,25.91,1562.41,27.41C1562.61,28.81,1562.61,30.21,1562.41,31.61C1562.21,33.01,1561.81,34.31,1561.21,35.61C1561.01,36.21,1560.71,36.71,1560.31,37.21L1551.11,51.11C1544.71,60.81,1538.31,70.61,1532.41,80.61C1528.51,87.21,1524.81,93.91,1521.31,100.71L1521.11,101.31C1520.81,101.81,1520.51,102.31,1520.11,102.81C1519.01,104.21,1517.71,105.51,1516.21,106.41C1514.51,107.51,1512.61,108.11,1510.61,108.31C1508.61,108.51,1506.61,108.31,1504.71,107.71C1503.61,107.31,1502.51,106.81,1501.51,106.21C1500.41,105.51,1499.31,104.51,1498.41,103.41C1497.41,102.21,1496.61,100.81,1496.11,99.31C1495.51,97.61,1495.21,95.81,1495.31,94.11C1495.41,92.71,1495.61,91.41,1496.11,90.11C1496.31,89.61,1496.51,89.01,1496.81,88.51L1498.51,85.21C1500.11,82.31,1501.61,79.31,1503.31,76.51C1506.31,71.11,1509.41,65.91,1512.61,60.61C1520.61,47.61,1529.11,35.01,1537.51,22.31L1537.81,21.81C1538.11,21.41,1538.21,21.31,1538.61,20.91C1539.01,20.51,1539.41,20.01,1539.91,19.61C1541.71,18.01,1543.91,16.91,1546.21,16.41C1546.81,16.31,1547.41,16.21,1548.01,16.21C1548.51,16.11,1548.71,16.11,1549.21,16.11L1549.81,16.11Z" fill="#ffffff"/>
                <path d="M1592.92,113.96C1593.5,113.98,1594.07,114.02,1594.64,114.1C1596.06,114.3,1597.44,114.74,1598.74,115.37C1599.9,115.93,1600.98,116.67,1601.94,117.53C1604.5,119.85,1606.14,123.13,1606.44,126.57C1606.56,127.85,1606.49,129.17,1606.24,130.42C1605.94,131.98,1605.38,133.47,1604.58,134.82C1596.44,141.91,1596.44,141.91,1601.85,138.15C1601.42,138.53,1600.97,138.87,1600.5,139.21L1596.44,141.91L1592.04,144.81C1589.66,146.41,1587.27,147.91,1584.99,149.61C1583.79,150.51,1582.69,151.41,1581.59,152.31L1575.39,157.61L1567.79,164.01L1567.39,164.31L1565.99,165.31C1564.59,166.11,1563.09,166.71,1561.59,167.01C1560.19,167.31,1558.69,167.31,1557.29,167.21C1555.99,167.11,1554.69,166.71,1553.49,166.21C1551.79,165.51,1550.19,164.41,1548.89,163.11C1547.49,161.71,1546.39,159.91,1545.69,158.01C1545.09,156.41,1544.89,154.61,1544.89,152.91C1544.89,151.21,1545.29,149.51,1545.99,147.91C1546.49,146.61,1547.29,145.41,1548.29,144.31L1549.49,143.11L1551.59,141.41L1554.59,138.91C1557.49,136.51,1560.39,134.01,1563.29,131.51L1564.69,130.31C1565.99,129.21,1567.39,128.11,1568.79,127.11C1571.29,125.31,1573.79,123.61,1576.39,122.01L1584.59,116.71L1584.99,116.51C1585.69,116.11,1586.49,115.71,1587.29,115.41C1588.19,115.11,1589.19,114.81,1590.19,114.71C1590.59,114.61,1590.99,114.61,1591.49,114.61L1592.39,114.61Z" fill="#ffffff" transform="translate(1575.69,140.615) translate(-1575.69,-140.615)"/>
            </g>
        </g>
        <g>
            <path d="M100.85,533.46C67.95,532.9,6.7,415.14,1,276.24C-1.3,220.14,6.74,157.59,17.1,117.11C24.77,87.21,29.02,46.51,57.02,33.41C92.3,16.81,199.88,17.71,247.22,17.71C288.92,17.71,526.5,28.21,575.92,28.21C646.32,28.21,911.22,22.61,929.42,53.81C938.92,70.11,947.38,85.41,954.34,114.81C860.99,117.71,745.46,130.51,702.34,179.31C652.29,236.01,646.9,401.81,685.28,510.31L305.58,533.51C274.38,600.11,246.08,642.01,217.51,639.51L192.61,533.61L100.91,533.61Z" fill="#f79400"/>
            <path d="M954.34,114.8C1004.08,113.14,1047.51,114.32,1070.47,114.32C1116.9,114.32,1329.7,93.99,1452.29,140.79C1543.59,175.59,1596.69,416.79,1483.79,559.29C1459.89,589.39,1390.39,587.89,1360.79,603.89C1345.99,611.79,1326.79,681.19,1353.99,723.19C1319.09,715.79,1283.89,668.89,1254.59,606.99C1254.59,606.99,810.49,649.09,723.09,576.29C701.89,558.59,697.49,545.09,685.19,510.19L709.39,508.69C709.39,508.69,934.1,506,956,465.1C988,405.34,981.1,225.54,954.14,114.62Z" fill="#ef4016"/>
            <path d="M954.34,114.8C981.28,225.72,988.19,405.5,956.19,465.23C934.19,506.13,709.49,508.79,709.49,508.79L685.19,510.29C646.79,401.69,652.19,235.89,702.19,179.29C745.29,130.39,860.79,117.69,954.19,114.79Z" fill="#2ca3a3"/>
        </g>
        <g fill="#fff" fill-rule="nonzero" stroke="#fff">
            <path d="M175.44,124.7C183.86,124.45,188.21,128.93,188.48,138.14L189.16,161.04C190.09,192.76,194.51,192.99,222.73,351.21L222.9,357.11C223.23,368.51,218.9,374.31,209.9,374.61C201.73,373.91,197.56,370.61,197.4,364.81L197.16,356.81C196.74,342.51,194.6,349.51,177.21,262.81C137.21,265.91,117.21,269.21,117.31,272.61L118.71,274.01L118.81,274.81C124.11,324.81,120.51,313.01,121.81,354.51L122.71,383.61C123.01,394.71,118.11,400.51,107.91,400.81C101.21,401.01,97.51,396.91,96.71,388.41L95.91,361.11C94.51,312.71,98.01,323.41,92.91,278.21L90.31,278.31C83.01,278.51,77.41,276.01,73.51,270.81L73.31,265.01C78.11,259.01,83.51,255.81,89.61,255.41C89.11,237.01,89.81,225.31,72.61,145.81C72.41,139.81,77.81,136.11,88.91,134.81C96.11,134.61,102.21,152.01,107.01,187.01C111.21,202.41,107.61,197.91,115.21,247.81L116.91,247.81L175.61,241.41C164.41,179.41,161.91,172.11,161.11,145.01C160.81,132.21,165.71,125.61,175.81,125.31ZM280.22,236.4C296.49,235.93,307.89,247.84,314.42,272.13C307.67,299.73,292.52,313.88,269,314.57L267.26,314.62L267.29,315.72C272.59,337.62,285.19,348.28,305.29,347.68C320.69,347.23,332.79,335.84,341.79,313.51L351.29,310.01C357.69,309.81,361.79,313.81,363.79,322.01C364.19,337.01,350.49,351.61,322.79,365.81L301.99,369.71C276.99,370.51,257.79,356.11,244.39,326.71C240.49,314.91,238.49,305.21,238.29,297.41L238.09,292.71C237.29,268.01,249.19,249.71,273.49,237.91L279.99,236.61ZM265.44,282.67L265.47,283.4L275.3,291.47C279.66,291.34,283.58,286.27,287.06,276.21L286.89,270.41C285.19,263.01,283.19,259.31,280.89,259.31L278.19,259.41C273.79,259.61,269.49,267.31,265.29,282.71ZM453.92,239.37L480.17,242.25L480.14,241.15C486.54,240.97,491.59,245.05,495.34,253.45L494.7,276.37L495.17,292.37C495.87,315.85,500.44,333.3,508.92,344.69C506.77,350.79,502.36,353.89,495.68,354.09C486.08,354.39,478.85,345.39,473.95,327.09L472.91,321.29L469.01,321.39C459.21,342.29,444.81,356.39,425.81,363.69L419.31,365.29C394.21,360.19,381.21,345.29,380.51,320.59L380.51,318.39C379.61,287.59,396.81,262.59,432.01,243.39L454.21,239.09ZM406.72,324.77C409.1,336.84,413.92,342.77,421.19,342.54L422.49,342.5C432.59,342.2,447.89,316.18,468.09,264.42L467.99,263.32L455.29,261.52L454.39,261.55C431.09,262.23,415.09,279.45,406.19,313.15L406.49,324.79ZM536.94,212.84C544.79,212.61,550.97,220.31,555.51,235.94L556.81,235.9C567.61,224.67,579.31,218.87,592.11,218.5C613.11,221.02,623.81,226.17,624.01,233.92C621.61,240.78,617.21,244.3,610.81,244.49L594.01,240.59L589.71,240.69C572.71,243.79,565.01,273.49,566.61,329.69L567.11,346.79C565.61,354.29,561.61,358.19,555.21,358.39C545.91,358.59,541.11,354.19,540.91,344.99L539.71,302.79C538.81,271.79,533.41,244.79,523.41,221.79C525.61,215.89,530.11,212.89,537.11,212.69Z"/>
        </g>
        <g fill="#fff" fill-rule="nonzero" stroke="#fff" stroke-width="1.87">
            <path d="M802.73,266.1C818.53,272.76,826.1,293.97,825.45,329.74C826.53,348.77,829.45,361.99,834.21,369.41L834.21,370.61C833.81,374.61,830.41,377.21,823.91,378.31C812.01,377.41,806.01,351.51,805.71,300.71L801.21,287.61L797.31,287.41C790.01,295.21,785.81,304.71,784.71,316.01C783.41,324.41,783.11,338.01,783.81,356.81C780.61,362.01,776.81,364.41,772.51,364.01C765.21,363.11,761.81,350.71,762.51,326.91C758.61,302.81,754.41,290.51,749.91,290.11L747.91,290.11C741.41,291.81,737.51,297.81,736.21,308.11L739.51,363.51L739.21,367.21C738.61,371.41,734.81,374.21,727.91,375.81C717.11,374.91,713.31,341.71,716.51,276.21C717.21,272.21,720.51,269.61,726.61,268.21C732.71,270.31,735.61,272.71,735.41,275.41L736.41,275.41L751.01,273.41C758.31,274.21,765.71,279.31,773.01,288.81L773.61,289.11C783.81,276.01,793.61,268.51,803.21,266.61ZM888.3,271.24C900.4,271.24,908.63,280.84,912.96,300.06C907.33,321.56,895.76,332.31,878.23,332.31L876.93,332.31L876.93,333.21C880.39,350.51,889.59,359.21,904.53,359.21C915.99,359.21,925.29,350.61,932.43,333.31L939.58,330.81C944.34,330.81,947.36,334.11,948.66,340.51C948.66,352.31,938.16,363.51,917.18,373.91L901.6,376.51C883,376.51,869.03,364.81,859.73,341.41C857.13,332.11,855.83,324.41,855.83,318.31L855.83,314.61C855.83,295.21,865.03,281.11,883.43,272.41L888.29,271.61ZM876.28,307.2L876.28,307.77L883.42,314.33C886.67,314.33,889.7,310.43,892.52,302.63L892.52,298.06C891.42,292.16,890.02,289.22,888.29,289.22L886.29,289.22C882.99,289.22,879.69,295.22,876.19,307.2Z"/>
        </g>
        <g fill="#fff">
            <path d="M1095.35,242.6C1100.31,242.63,1105.27,242.77,1110.2,243.23C1116,243.78,1121.75,244.79,1127.3,246.53C1131.1,247.75,1134.82,249.31,1138.33,251.23C1140.35,252.36,1142.31,253.58,1144.19,254.93C1145.49,255.88,1146.79,256.89,1148.09,257.95C1155.69,264.35,1161.79,272.48,1166.79,281.1L1169.19,285.46C1170.19,287.41,1171.19,289.36,1172.09,291.36C1173.29,293.9,1174.39,296.48,1175.49,299.08C1176.89,302.62,1178.29,306.2,1179.59,309.81C1181.09,314.11,1182.49,318.41,1183.79,322.71L1183.99,323.61L1184.09,324.01C1184.29,325.41,1184.59,326.81,1184.79,328.21C1185.49,332.61,1186.29,336.91,1186.89,341.31C1187.59,346.41,1188.09,351.61,1188.59,356.81C1188.79,359.11,1188.89,361.41,1189.09,363.81C1189.09,364.01,1189.29,366.71,1189.29,366.81C1189.29,367.01,1189.29,368.91,1189.19,369.21L1189.19,372.51C1188.99,376.81,1188.79,381.01,1188.29,385.21C1187.09,396.41,1184.69,407.41,1180.49,417.81C1177.99,424.11,1174.79,430.11,1170.99,435.61C1167.09,441.31,1162.49,446.41,1157.39,450.91C1152.79,455.01,1147.79,458.51,1142.39,461.61C1140.79,462.51,1139.19,463.41,1137.59,464.21L1136.79,464.61L1135.69,465.21L1135.39,465.31L1132.89,466.01C1127.69,467.31,1122.49,468.61,1117.19,469.51C1113.49,470.11,1109.69,470.71,1105.89,470.81C1103.39,471.01,1100.89,470.91,1098.39,470.81C1093.79,470.51,1089.39,469.71,1084.99,468.51C1080.59,467.21,1076.49,465.41,1072.59,463.01C1069.09,460.81,1065.79,458.21,1062.89,455.31C1058.99,451.41,1055.79,447.01,1052.99,442.21C1048.89,435.11,1045.89,427.41,1043.59,419.51L1042.99,417.81C1041.69,413.81,1040.59,409.71,1039.69,405.61C1038.19,398.61,1037.39,391.41,1036.99,384.21C1036.79,381.41,1036.79,378.51,1036.69,375.71L1036.69,368C1036.79,361.1,1037.09,354.2,1037.79,347.32C1038.49,340.62,1039.69,334.02,1041.39,327.52C1043.99,317.42,1047.79,307.72,1051.89,298.12C1055.19,290.22,1058.69,282.48,1062.09,274.62L1064.79,268.32L1067.59,261.59L1068.29,259.89L1068.29,259.79L1068.19,259.59C1067.99,259.49,1067.89,259.39,1067.79,259.29C1067.49,258.99,1067.29,258.69,1067.19,258.39C1066.69,257.59,1066.69,256.69,1066.89,255.89C1066.99,255.49,1067.19,255.09,1067.39,254.69C1068.09,253.19,1069.09,251.69,1070.29,250.49C1070.79,249.99,1071.29,249.49,1071.89,248.99C1075.19,246.29,1079.29,244.79,1083.39,244.09L1085.49,243.79C1086.39,243.59,1087.29,243.49,1088.19,243.49C1089.39,243.39,1090.59,243.29,1091.69,243.29C1092.59,243.19,1093.49,243.19,1094.39,243.19ZM1097.35,268.72C1093.95,275.8,1090.49,282.85,1087.07,289.92L1084.85,294.52C1082.32,299.9,1079.85,305.3,1077.7,310.84C1075.77,315.79,1074.1,320.84,1072.78,326C1069.26,339.8,1068.35,354.13,1068.3,368.33C1068.3,371.83,1068.3,375.31,1068.4,378.79C1068.58,386.19,1069.1,393.59,1070.2,400.89C1070.55,403.29,1070.98,405.79,1071.5,408.19C1071.92,410.19,1072.4,412.19,1072.95,414.19C1073.35,415.59,1073.79,416.99,1074.27,418.49C1074.67,419.59,1075.07,420.79,1075.52,421.89C1078.1,428.39,1081.79,434.69,1087.26,439.29C1088.04,439.89,1088.86,440.49,1089.69,441.09C1091.19,442.09,1092.89,442.99,1094.59,443.69L1094.69,443.69C1097.79,444.29,1100.79,445.09,1103.89,445.59C1104.99,445.69,1106.29,445.59,1107.49,445.59C1110.69,445.59,1113.89,445.29,1117.09,444.49C1119.59,443.89,1122.09,443.09,1124.49,441.99C1125.99,441.29,1127.49,440.49,1128.89,439.59C1129.89,438.89,1130.99,438.19,1131.89,437.49C1138.69,432.29,1143.69,424.99,1147.59,417.39L1149.69,412.69C1150.49,410.79,1151.19,408.99,1151.89,406.99C1152.49,405.39,1152.99,403.79,1153.49,402.19L1154.69,398.29C1155.29,395.89,1155.79,393.49,1156.19,391.09C1156.69,387.99,1156.99,384.89,1157.09,381.89C1157.19,380.39,1157.19,378.89,1157.19,377.39L1157.19,358C1157.09,351.55,1156.99,345.08,1156.39,338.64C1155.69,331.68,1154.59,324.76,1152.19,318.17C1150.99,314.62,1149.39,311.21,1147.59,307.94C1143.89,301.44,1139.29,295.49,1134.39,289.78C1128.89,283.31,1123.19,277.1,1117.49,270.88L1116.99,270.58C1115.89,269.98,1114.79,269.51,1113.59,269.12C1112.39,268.72,1111.19,268.42,1109.99,268.12C1105.99,267.22,1101.89,266.78,1097.89,266.57L1097.79,266.57L1096.79,268.57ZM1225.7,358.16C1227.18,358.2,1228.65,358.4,1230.07,358.86C1230.92,359.12,1231.74,359.46,1232.51,359.91C1234.41,361.01,1235.91,362.51,1237.11,364.31C1238.01,365.71,1238.71,367.21,1239.21,368.81L1239.81,371.01L1240.01,371.81C1240.11,372.01,1240.11,372.31,1240.11,372.51C1240.21,372.61,1240.21,372.71,1240.21,372.81L1240.21,377.71L1240.11,379.01L1239.81,382.11C1239.51,386.01,1239.21,389.91,1239.01,393.81C1238.91,396.71,1238.81,399.61,1238.81,402.51C1238.81,404.81,1238.91,407.21,1239.11,409.51C1239.21,411.41,1239.41,413.31,1239.71,415.11C1239.91,416.61,1240.21,418.11,1240.51,419.61C1240.71,420.81,1241.01,421.91,1241.31,423.01C1241.51,423.91,1241.81,424.71,1242.11,425.61L1242.81,427.51C1244.31,431.31,1246.61,435.01,1250.11,437.31C1250.71,437.71,1251.41,438.11,1252.01,438.41C1253.01,438.91,1254.11,439.21,1255.21,439.41C1257.21,439.81,1259.21,439.91,1261.11,439.71C1261.61,439.51,1262.01,439.31,1262.41,439.01C1263.41,438.51,1264.41,437.91,1265.41,437.41C1266.31,436.91,1267.21,436.31,1268.11,435.71C1272.71,432.61,1276.91,428.61,1279.21,423.51C1279.71,422.61,1280.11,421.61,1280.41,420.61C1280.91,418.91,1281.21,417.21,1281.31,415.41L1281.31,407.41L1276.61,381.51L1276.61,377C1276.61,375.03,1276.81,373.05,1277.21,371.1C1277.81,368.57,1278.81,366.1,1280.41,364.06C1281.31,362.93,1282.31,361.94,1283.51,361.14C1284.81,360.3,1286.21,359.66,1287.71,359.24C1289.31,358.76,1291.01,358.54,1292.61,358.46C1294.01,358.42,1295.31,358.46,1296.71,358.71C1299.01,359.21,1301.31,360.21,1303.11,361.71C1303.51,362.11,1303.91,362.41,1304.31,362.81C1306.91,365.51,1308.31,369.11,1309.01,372.71C1309.21,373.51,1309.31,374.21,1309.41,374.91C1309.61,375.91,1309.71,376.91,1309.71,377.81C1309.81,378.91,1309.91,379.91,1309.91,381.01C1309.91,382.41,1309.91,383.81,1310.01,385.21C1310.01,387.71,1310.01,390.21,1310.11,392.81C1310.71,407.21,1312.21,421.51,1314.01,435.71L1315.41,436.31L1317.51,437.21C1318.09,437.51,1318.61,437.71,1319.11,438.01C1319.56,438.21,1319.96,438.51,1320.31,438.71C1322.81,440.21,1325.11,442.11,1326.31,444.81C1326.51,445.21,1326.61,445.61,1326.71,446.01C1326.97,446.81,1327.08,447.61,1327.11,448.41L1327.11,450.21C1327.01,451.51,1326.71,452.81,1326.11,454.01C1325.46,455.31,1324.51,456.41,1323.51,457.41C1322.11,458.61,1320.46,459.51,1318.81,460.11C1316.31,461.11,1313.61,461.61,1311.01,462.01L1310.51,462.11C1310.01,462.21,1309.51,462.21,1309.01,462.11C1308.31,462.11,1307.61,462.01,1306.99,461.81C1306.19,461.71,1305.39,461.41,1304.64,461.21C1304.09,461.01,1303.54,460.81,1303.04,460.51C1299.34,458.71,1296.44,455.51,1294.18,452.11L1293.08,453.01C1290.64,455.01,1288.13,456.91,1285.48,458.61C1280.44,461.81,1274.88,464.31,1269.03,465.41C1267.59,465.71,1266.13,465.91,1264.63,466.01C1263.89,466.11,1263.13,466.11,1262.4,466.11L1260.1,466.01C1258.6,466.01,1257.2,465.91,1255.7,465.71C1247.4,464.91,1239.1,463.01,1231.8,458.81C1230.6,458.21,1229.5,457.51,1228.4,456.71C1227,455.81,1225.67,454.71,1224.4,453.51C1222.6,451.91,1220.97,450.11,1219.5,448.21C1217.86,446.01,1216.4,443.71,1215.2,441.21L1214.3,439.21L1213.83,438.11C1213.73,437.91,1213.73,437.81,1213.73,437.51L1213.33,434.01C1212.93,430.51,1212.53,426.91,1212.23,423.31C1211.43,414.71,1210.83,406.11,1210.53,397.41C1210.33,392.91,1210.23,388.51,1210.13,384.01C1210.07,380.21,1210.08,376.41,1210.08,372.71L1210.08,372.01C1210.18,370.61,1210.38,369.11,1210.88,367.71C1211.18,366.81,1211.6,366.01,1212.13,365.11C1212.53,364.51,1212.95,364.01,1213.45,363.41C1213.95,363.01,1214.35,362.61,1214.85,362.31C1215.25,362.01,1215.65,361.71,1216.05,361.51C1218.75,359.91,1221.95,359.41,1224.95,359.21L1226.65,359.21ZM1409.27,335.16C1409.9,335.22,1410.53,335.3,1411.17,335.4C1411.64,335.48,1412.11,335.57,1412.59,335.68C1415.29,336.28,1418.09,337.3,1420.19,339.22C1421.19,340.12,1421.99,341.22,1422.59,342.44C1423.09,343.67,1423.39,345,1423.49,346.34C1423.59,347.9,1423.29,349.46,1422.69,350.9C1421.99,352.5,1420.89,353.86,1419.59,354.96C1418.49,355.86,1417.29,356.56,1415.99,357.14C1414.29,357.89,1412.59,358.42,1410.89,358.84C1408.89,359.29,1406.89,359.6,1404.99,359.82C1401.89,360.16,1398.79,360.27,1395.59,360.3L1395.19,360.3L1388.09,362.1L1391.49,455.86L1391.49,456.22L1391.19,457.62L1390.59,459.69C1390.09,460.99,1389.49,462.19,1388.69,463.29C1387.79,464.49,1386.79,465.49,1385.59,466.39C1382.29,468.69,1378.09,469.39,1374.19,469.09C1371.49,468.89,1368.89,468.39,1366.59,467.09C1365.79,466.59,1364.99,466.09,1364.29,465.39C1363.69,464.79,1363.09,464.29,1362.59,463.59L1361.69,462.19C1360.39,459.99,1359.69,457.59,1359.39,455.09C1359.29,453.99,1359.19,452.89,1359.19,451.89L1359.19,429.19L1358.49,365.79L1358.39,365.59L1343.09,366.29L1342.69,366.29L1342.29,366.19L1341.19,365.99L1339.69,365.69C1336.49,364.89,1333.39,363.69,1331.09,361.29C1330.09,360.29,1329.39,359.19,1328.89,357.99C1328.39,356.79,1328.19,355.59,1328.09,354.39C1327.99,352.99,1328.19,351.59,1328.79,350.29C1329.49,348.79,1330.59,347.49,1331.89,346.49C1332.89,345.69,1334.09,345.09,1335.29,344.49C1336.99,343.69,1338.69,343.19,1340.49,342.79C1342.49,342.39,1344.59,342.09,1346.59,341.89C1349.49,341.49,1352.49,341.39,1355.39,341.29L1355.39,332.69C1355.49,322.69,1355.59,312.69,1355.79,302.69L1356.39,274.89L1356.69,255.99L1356.89,244.79C1356.89,243.79,1356.99,242.89,1357.29,241.99C1357.49,241.39,1357.69,240.79,1357.99,240.19C1358.23,239.69,1358.54,239.19,1358.89,238.79C1360.99,236.09,1364.33,234.79,1367.59,234.09L1369.09,233.79L1371.44,233.49C1372.04,233.39,1372.64,233.39,1373.24,233.39C1374.14,233.39,1374.94,233.59,1375.8,233.79C1376.2,233.89,1376.6,234.09,1377,234.29C1379.17,235.39,1380.77,237.19,1381.9,239.29C1383.3,241.69,1384.2,244.29,1384.9,246.99C1385.8,250.49,1386.4,253.99,1386.8,257.59C1387.4,262.39,1387.7,267.19,1387.8,271.99C1388,278.19,1388,284.49,1387.9,290.69L1387.6,301.79C1387.47,306.79,1387.3,311.89,1387.1,316.89C1386.98,320.99,1386.8,325.09,1386.6,329.19L1386.55,332.59L1386.52,336.59L1407.22,334.29L1408.32,334.29ZM1463.95,437.76C1465.17,437.8,1466.38,437.96,1467.55,438.36C1468.31,438.6,1469.05,438.93,1469.73,439.36C1470.25,439.66,1470.73,440.03,1471.19,440.42C1473.39,442.36,1474.59,445.1,1475.29,447.92C1475.39,448.57,1475.59,449.24,1475.69,449.92C1475.69,450.42,1475.79,450.92,1475.79,451.45C1475.79,451.68,1475.69,451.93,1475.69,452.15C1475.59,452.67,1475.49,453.18,1475.29,453.65C1474.39,455.99,1472.39,457.65,1470.29,458.87L1469.09,459.52C1468.59,459.78,1468.09,460.02,1467.49,460.26C1466.59,460.69,1465.59,461.08,1464.59,461.46L1463.99,461.68C1463.49,461.86,1462.99,462.06,1462.39,462.1C1461.99,462.13,1461.89,462.1,1461.39,462.04L1459.79,461.72C1459.09,461.54,1458.29,461.36,1457.49,461.14C1456.89,460.97,1456.29,460.79,1455.69,460.59C1452.59,459.49,1449.49,457.69,1447.59,454.89C1447.29,454.39,1446.99,453.99,1446.79,453.49C1446.49,452.79,1446.29,452.09,1446.09,451.39C1445.89,450.39,1445.89,449.49,1445.99,448.49C1446.09,447.29,1446.39,446.09,1446.99,444.99C1447.59,443.69,1448.49,442.49,1449.59,441.59C1450.99,440.39,1452.69,439.59,1454.39,438.99C1457.09,438.09,1459.99,437.69,1462.79,437.49L1463.19,437.49ZM1461.62,231.94C1462.58,231.99,1463.52,232.12,1464.45,232.39C1465.03,232.49,1465.59,232.69,1466.13,232.99C1466.56,233.19,1466.99,233.39,1467.39,233.69C1470.29,235.49,1472.29,238.49,1473.79,241.59C1473.99,242.09,1474.29,242.59,1474.49,243.19C1474.79,243.89,1474.99,244.59,1475.29,245.29L1476.19,248.09C1476.59,249.39,1476.89,250.79,1477.19,252.19C1477.59,253.89,1477.89,255.59,1478.19,257.29C1478.59,259.39,1478.89,261.59,1479.09,263.69C1479.39,266.59,1479.69,269.49,1479.89,272.39L1480.49,282.99C1480.59,287.89,1480.69,292.89,1480.69,297.89L1474.69,374.69L1476.59,404.49L1476.59,404.89C1476.49,405.79,1476.39,406.59,1476.09,407.39C1475.89,407.89,1475.69,408.39,1475.39,408.89C1475.19,409.29,1474.89,409.59,1474.69,409.99C1472.89,412.29,1469.99,413.59,1467.19,414.39C1466.59,414.59,1465.99,414.69,1465.39,414.79C1464.59,414.89,1463.79,415.09,1463.09,415.19L1460.09,415.49L1459.69,415.49C1458.69,415.49,1457.59,415.39,1456.59,415.19C1455.89,414.99,1455.19,414.79,1454.49,414.49C1453.99,414.29,1453.49,413.99,1453.09,413.69C1450.29,411.79,1448.39,408.89,1447.19,405.89L1446.59,404.39C1446.29,403.79,1446.09,403.09,1445.89,402.49C1445.59,401.49,1445.39,400.59,1445.09,399.69C1444.79,398.49,1444.59,397.39,1444.39,396.19C1444.09,394.49,1443.89,392.79,1443.69,391.09C1443.39,388.89,1443.29,386.59,1443.19,384.39C1442.99,381.49,1442.99,378.59,1442.99,375.69L1442.99,375.29L1449.69,305.49L1449.69,291L1449.39,282.75C1449.09,277.75,1448.59,272.71,1447.89,267.75C1446.89,260.38,1445.39,253.1,1443.49,245.95L1443.29,245.17L1442.99,244.42L1442.89,243.92C1442.89,243.72,1442.89,243.56,1442.79,243.42L1442.79,242.82C1442.79,242.42,1442.89,242.02,1442.99,241.58C1443.09,240.95,1443.31,240.34,1443.59,239.76C1443.79,239.39,1443.99,239.02,1444.21,238.66C1445.91,236.06,1448.81,234.56,1451.71,233.62C1452.31,233.42,1452.91,233.22,1453.51,233.07C1454.31,232.87,1455.06,232.7,1455.81,232.54C1456.81,232.34,1457.81,232.2,1458.81,232.04L1459.31,231.99C1459.81,231.89,1459.81,231.89,1460.28,231.89L1460.58,231.89Z"/>
        </g>
    </g>
</svg>
